<?xml version="1.0" encoding="utf-8"?>
<svg width="139px" height="20px" viewBox="0 0 139 20" version="1.1" xmlns:xlink="http://www.w3.org/1999/xlink" xmlns="http://www.w3.org/2000/svg">
  <defs>
    <linearGradient gradientUnits="objectBoundingBox" x1="0" y1="0" x2="0" y2="1" id="gradient_1">
      <stop offset="0%" stop-color="#BBBBBB" stop-opacity="0.101960786" />
      <stop offset="100%" stop-color="#000000" stop-opacity="0.101960786" />
    </linearGradient>
    <path d="M139 0L139 0L139 20L0 20L0 0L139 0Z" id="path_1" />
    <path d="M2.38419e-07 6L2.38419e-07 3C2.38419e-07 2.17157 0.428562 1.46447 1.28569 0.87868C2.14281 0.292893 3.17745 0 4.38961 0L134.615 0C135.827 0 136.861 0.292893 137.718 0.87868C138.576 1.46447 139.004 2.17157 139.004 3L139.004 17C139.004 17.8284 138.576 18.5355 137.718 19.1213C136.861 19.7071 135.827 20 134.615 20L4.38961 20C3.17745 20 2.14281 19.7071 1.28569 19.1213C0.428562 18.5355 2.38419e-07 17.8284 2.38419e-07 17L2.38419e-07 6Z" id="path_2" />
    <path d="M0 0L650.842 0L650.842 120.373L0 120.373L0 0Z" id="path_3" />
    <path d="M0 0L638.842 0L638.842 140.373L0 140.373L0 0Z" id="path_4" />
    <clipPath id="clip_1">
      <use xlink:href="#path_1" clip-rule="evenodd" fill-rule="evenodd" />
    </clipPath>
    <clipPath id="clip_2">
      <use xlink:href="#path_2" clip-rule="evenodd" fill-rule="evenodd" />
    </clipPath>
    <clipPath id="clip_3">
      <use xlink:href="#path_3" clip-rule="evenodd" fill-rule="evenodd" />
    </clipPath>
    <clipPath id="clip_4">
      <use xlink:href="#path_4" clip-rule="evenodd" fill-rule="evenodd" />
    </clipPath>
  </defs>
  <g id="CDN-CloudFlare-3693F3" clip-path="url(#clip_1)">
    <path d="M139 0L139 0L139 20L0 20L0 0L139 0Z" id="CDN-CloudFlare-3693F3" fill="none" stroke="none" />
    <g id="Mask-Group">
      <path d="M2.38419e-07 6L2.38419e-07 3C2.38419e-07 2.17157 0.428562 1.46447 1.28569 0.87868C2.14281 0.292893 3.17745 0 4.38961 0L134.615 0C135.827 0 136.861 0.292893 137.718 0.87868C138.576 1.46447 139.004 2.17157 139.004 3L139.004 17C139.004 17.8284 138.576 18.5355 137.718 19.1213C136.861 19.7071 135.827 20 134.615 20L4.38961 20C3.17745 20 2.14281 19.7071 1.28569 19.1213C0.428562 18.5355 2.38419e-07 17.8284 2.38419e-07 17L2.38419e-07 6Z" id="Line" fill="none" fill-rule="evenodd" stroke="none" />
      <g clip-path="url(#clip_2)">
        <g id="Group">
          <path d="M0 0L63 0L63 20L0 20L0 0Z" id="Rectangle" fill="#555555" fill-rule="evenodd" stroke="none" />
          <path d="M63.004 0L139.004 0L139.004 20L63.004 20L63.004 0Z" id="Rectangle" fill="#3693F3" fill-rule="evenodd" stroke="none" />
          <path d="M0 0L139.004 0L139.004 20L0 20L0 0Z" id="Rectangle" fill="url(#gradient_1)" fill-rule="evenodd" stroke="none" />
        </g>
      </g>
    </g>
    <g id="Group" transform="translate(9.315388 3.0000172)">
      <g id="Text" transform="matrix(0.1 0 0 0.1 23.77619 0.9409008)">
        <g fill="#010101" fill-opacity="0.3019608" stroke="none" id="CDN">
          <path d="M72.5098 104.79Q69.5557 106.079 67.1655 107.207Q64.7754 108.335 60.9082 109.57Q57.6318 110.591 53.7915 111.316Q49.9512 112.041 45.332 112.041Q36.6309 112.041 29.5142 109.597Q22.3975 107.153 17.1338 101.943Q11.9775 96.8408 9.07715 88.9722Q6.17676 81.1035 6.17676 70.6836Q6.17676 60.8008 8.96973 53.0127Q11.7627 45.2246 17.0264 39.8535Q22.1289 34.6436 29.353 31.9043Q36.5771 29.165 45.3857 29.165Q51.8311 29.165 58.2495 30.7227Q64.668 32.2803 72.5098 36.2012L72.5098 48.8232L71.7041 48.8232Q65.0977 43.291 58.5986 40.7666Q52.0996 38.2422 44.6875 38.2422Q38.6182 38.2422 33.7573 40.2026Q28.8965 42.1631 25.083 46.2988Q21.377 50.3271 19.3091 56.4771Q17.2412 62.627 17.2412 70.6836Q17.2412 79.1162 19.5239 85.1855Q21.8066 91.2549 25.4053 95.0684Q29.165 99.043 34.187 100.95Q39.209 102.856 44.7949 102.856Q52.4756 102.856 59.1895 100.225Q65.9033 97.5928 71.7578 92.3291L72.5098 92.3291L72.5098 104.79ZM155.117 70.6836Q155.117 81.5869 150.364 90.4492Q145.61 99.3115 137.715 104.199Q132.236 107.583 125.496 109.087Q118.755 110.591 107.744 110.591L87.5488 110.591L87.5488 30.6152L107.529 30.6152Q119.238 30.6152 126.14 32.3071Q133.042 33.999 137.822 36.9531Q145.986 42.0557 150.552 50.542Q155.117 59.0283 155.117 70.6836ZM143.999 70.5225Q143.999 61.1231 140.723 54.6777Q137.446 48.2324 130.947 44.5264Q126.221 41.8408 120.903 40.7935Q115.586 39.7461 108.174 39.7461L98.1836 39.7461L98.1836 101.46L108.174 101.46Q115.854 101.46 121.575 100.332Q127.295 99.2041 132.075 96.1426Q138.037 92.3291 141.018 86.0986Q143.999 79.8682 143.999 70.5225ZM233.32 110.591L220.161 110.591L182.241 39.0479L182.241 110.591L172.305 110.591L172.305 30.6152L188.794 30.6152L223.384 95.9277L223.384 30.6152L233.32 30.6152L233.32 110.591Z" />
        </g>
      </g>
      <g id="CDN" transform="matrix(0.1 0 0 0.1 23.68459 0)">
        <g fill="#FFFFFF" stroke="none" id="CDN">
          <path d="M72.5098 104.79Q69.5557 106.079 67.1655 107.207Q64.7754 108.335 60.9082 109.57Q57.6318 110.591 53.7915 111.316Q49.9512 112.041 45.332 112.041Q36.6309 112.041 29.5142 109.597Q22.3975 107.153 17.1338 101.943Q11.9775 96.8408 9.07715 88.9722Q6.17676 81.1035 6.17676 70.6836Q6.17676 60.8008 8.96973 53.0127Q11.7627 45.2246 17.0264 39.8535Q22.1289 34.6436 29.353 31.9043Q36.5771 29.165 45.3857 29.165Q51.8311 29.165 58.2495 30.7227Q64.668 32.2803 72.5098 36.2012L72.5098 48.8232L71.7041 48.8232Q65.0977 43.291 58.5986 40.7666Q52.0996 38.2422 44.6875 38.2422Q38.6182 38.2422 33.7573 40.2026Q28.8965 42.1631 25.083 46.2988Q21.377 50.3271 19.3091 56.4771Q17.2412 62.627 17.2412 70.6836Q17.2412 79.1162 19.5239 85.1855Q21.8066 91.2549 25.4053 95.0684Q29.165 99.043 34.187 100.95Q39.209 102.856 44.7949 102.856Q52.4756 102.856 59.1895 100.225Q65.9033 97.5928 71.7578 92.3291L72.5098 92.3291L72.5098 104.79ZM155.117 70.6836Q155.117 81.5869 150.364 90.4492Q145.61 99.3115 137.715 104.199Q132.236 107.583 125.496 109.087Q118.755 110.591 107.744 110.591L87.5488 110.591L87.5488 30.6152L107.529 30.6152Q119.238 30.6152 126.14 32.3071Q133.042 33.999 137.822 36.9531Q145.986 42.0557 150.552 50.542Q155.117 59.0283 155.117 70.6836ZM143.999 70.5225Q143.999 61.1231 140.723 54.6777Q137.446 48.2324 130.947 44.5264Q126.221 41.8408 120.903 40.7935Q115.586 39.7461 108.174 39.7461L98.1836 39.7461L98.1836 101.46L108.174 101.46Q115.854 101.46 121.575 100.332Q127.295 99.2041 132.075 96.1426Q138.037 92.3291 141.018 86.0986Q143.999 79.8682 143.999 70.5225ZM233.32 110.591L220.161 110.591L182.241 39.0479L182.241 110.591L172.305 110.591L172.305 30.6152L188.794 30.6152L223.384 95.9277L223.384 30.6152L233.32 30.6152L233.32 110.591Z" />
        </g>
      </g>
      <g id="CloudFlare" clip-path="url(#clip_3)" transform="matrix(0.1 0 0 0.1 62.684658 0.9409008)">
        <g fill="#010101" fill-opacity="0.3019608" stroke="none" id="CloudFlare">
          <path d="M72.5098 104.79Q69.5557 106.079 67.1655 107.207Q64.7754 108.335 60.9082 109.57Q57.6318 110.591 53.7915 111.316Q49.9512 112.041 45.332 112.041Q36.6309 112.041 29.5142 109.597Q22.3975 107.153 17.1338 101.943Q11.9775 96.8408 9.07715 88.9722Q6.17676 81.1035 6.17676 70.6836Q6.17676 60.8008 8.96973 53.0127Q11.7627 45.2246 17.0264 39.8535Q22.1289 34.6436 29.353 31.9043Q36.5771 29.165 45.3857 29.165Q51.8311 29.165 58.2495 30.7227Q64.668 32.2803 72.5098 36.2012L72.5098 48.8232L71.7041 48.8232Q65.0977 43.291 58.5986 40.7666Q52.0996 38.2422 44.6875 38.2422Q38.6182 38.2422 33.7573 40.2026Q28.8965 42.1631 25.083 46.2988Q21.377 50.3271 19.3091 56.4771Q17.2412 62.627 17.2412 70.6836Q17.2412 79.1162 19.5239 85.1855Q21.8066 91.2549 25.4053 95.0684Q29.165 99.043 34.187 100.95Q39.209 102.856 44.7949 102.856Q52.4756 102.856 59.1895 100.225Q65.9033 97.5928 71.7578 92.3291L72.5098 92.3291L72.5098 104.79ZM96.9482 110.591L86.8506 110.591L86.8506 27.0166L96.9482 27.0166L96.9482 110.591ZM168.062 80.6201Q168.062 95.2832 160.542 103.77Q153.022 112.256 140.4 112.256Q127.671 112.256 120.178 103.77Q112.686 95.2832 112.686 80.6201Q112.686 65.957 120.178 57.4438Q127.671 48.9307 140.4 48.9307Q153.022 48.9307 160.542 57.4438Q168.062 65.957 168.062 80.6201ZM157.642 80.6201Q157.642 68.9648 153.076 63.2983Q148.511 57.6318 140.4 57.6318Q132.183 57.6318 127.644 63.2983Q123.105 68.9648 123.105 80.6201Q123.105 91.8994 127.671 97.7271Q132.236 103.555 140.4 103.555Q148.457 103.555 153.049 97.7808Q157.642 92.0068 157.642 80.6201ZM233.428 110.591L223.33 110.591L223.33 103.931Q218.228 107.959 213.555 110.107Q208.882 112.256 203.242 112.256Q193.789 112.256 188.525 106.482Q183.262 100.708 183.262 89.5361L183.262 50.5957L193.359 50.5957L193.359 84.7559Q193.359 89.3213 193.789 92.5708Q194.219 95.8203 195.615 98.1299Q197.065 100.493 199.375 101.567Q201.685 102.642 206.089 102.642Q210.01 102.642 214.656 100.601Q219.302 98.5596 223.33 95.3906L223.33 50.5957L233.428 50.5957L233.428 110.591ZM301.963 110.591L291.865 110.591L291.865 104.307Q287.515 108.066 282.788 110.161Q278.062 112.256 272.529 112.256Q261.787 112.256 255.476 103.984Q249.165 95.7129 249.165 81.0498Q249.165 73.4229 251.34 67.4609Q253.516 61.499 257.222 57.3096Q260.874 53.2275 265.735 51.0791Q270.596 48.9307 275.806 48.9307Q280.532 48.9307 284.185 49.9243Q287.837 50.918 291.865 53.0127L291.865 27.0166L301.963 27.0166L301.963 110.591ZM291.865 95.8203L291.865 61.3916Q287.783 59.5654 284.561 58.8672Q281.338 58.1689 277.524 58.1689Q269.038 58.1689 264.312 64.0771Q259.585 69.9854 259.585 80.835Q259.585 91.5234 263.237 97.0825Q266.89 102.642 274.946 102.642Q279.243 102.642 283.647 100.735Q288.052 98.8281 291.865 95.8203ZM373.721 40.0684L333.276 40.0684L333.276 62.627L368.027 62.627L368.027 72.0801L333.276 72.0801L333.276 110.591L322.642 110.591L322.642 30.6152L373.721 30.6152L373.721 40.0684ZM395.259 110.591L385.161 110.591L385.161 27.0166L395.259 27.0166L395.259 110.591ZM461.86 110.591L451.816 110.591L451.816 104.199Q450.474 105.112 448.191 106.75Q445.908 108.389 443.76 109.355Q441.235 110.591 437.959 111.423Q434.683 112.256 430.278 112.256Q422.168 112.256 416.528 106.885Q410.889 101.514 410.889 93.1885Q410.889 86.3672 413.816 82.1509Q416.743 77.9346 422.168 75.5176Q427.646 73.1006 435.327 72.2412Q443.008 71.3818 451.816 70.9521L451.816 69.3945Q451.816 65.957 450.608 63.7012Q449.399 61.4453 447.144 60.1563Q444.995 58.9209 441.987 58.4912Q438.979 58.0615 435.703 58.0615Q431.729 58.0615 426.841 59.1089Q421.953 60.1563 416.743 62.1436L416.206 62.1436L416.206 51.8848Q419.16 51.0791 424.746 50.1123Q430.332 49.1455 435.757 49.1455Q442.095 49.1455 446.794 50.1929Q451.494 51.2402 454.932 53.7646Q458.315 56.2354 460.088 60.1563Q461.86 64.0771 461.86 69.8779L461.86 110.591ZM451.816 95.8203L451.816 79.1162Q447.197 79.3848 440.94 79.9219Q434.683 80.459 431.03 81.4795Q426.68 82.7148 423.994 85.3198Q421.309 87.9248 421.309 92.4902Q421.309 97.6465 424.424 100.251Q427.539 102.856 433.931 102.856Q439.248 102.856 443.652 100.789Q448.057 98.7207 451.816 95.8203ZM518.74 61.6064L518.203 61.6064Q515.947 61.0693 513.826 60.8276Q511.704 60.5859 508.804 60.5859Q504.131 60.5859 499.78 62.6538Q495.43 64.7217 491.401 67.998L491.401 110.591L481.304 110.591L481.304 50.5957L491.401 50.5957L491.401 59.458Q497.417 54.624 502.009 52.6099Q506.602 50.5957 511.382 50.5957Q514.014 50.5957 515.195 50.73Q516.377 50.8643 518.74 51.2402L518.74 61.6064ZM578.467 81.6406L534.263 81.6406Q534.263 87.1729 535.928 91.2817Q537.593 95.3906 540.493 98.0225Q543.286 100.601 547.126 101.89Q550.967 103.179 555.586 103.179Q561.709 103.179 567.913 100.735Q574.116 98.291 576.748 95.9277L577.285 95.9277L577.285 106.938Q572.183 109.087 566.865 110.537Q561.548 111.987 555.693 111.987Q540.762 111.987 532.383 103.904Q524.004 95.8203 524.004 80.9424Q524.004 66.2256 532.034 57.5781Q540.063 48.9307 553.169 48.9307Q565.308 48.9307 571.887 56.0205Q578.467 63.1104 578.467 76.1621L578.467 81.6406ZM568.638 73.9063Q568.584 65.957 564.636 61.6064Q560.688 57.2559 552.632 57.2559Q544.521 57.2559 539.714 62.0361Q534.907 66.8164 534.263 73.9063L568.638 73.9063Z" />
        </g>
      </g>
      <g id="CloudFlare" clip-path="url(#clip_4)" transform="matrix(0.1 0 0 0.1 62.842556 0)">
        <g fill="#FFFFFF" stroke="none" id="CloudFlare">
          <path d="M72.5098 104.79Q69.5557 106.079 67.1655 107.207Q64.7754 108.335 60.9082 109.57Q57.6318 110.591 53.7915 111.316Q49.9512 112.041 45.332 112.041Q36.6309 112.041 29.5142 109.597Q22.3975 107.153 17.1338 101.943Q11.9775 96.8408 9.07715 88.9722Q6.17676 81.1035 6.17676 70.6836Q6.17676 60.8008 8.96973 53.0127Q11.7627 45.2246 17.0264 39.8535Q22.1289 34.6436 29.353 31.9043Q36.5771 29.165 45.3857 29.165Q51.8311 29.165 58.2495 30.7227Q64.668 32.2803 72.5098 36.2012L72.5098 48.8232L71.7041 48.8232Q65.0977 43.291 58.5986 40.7666Q52.0996 38.2422 44.6875 38.2422Q38.6182 38.2422 33.7573 40.2026Q28.8965 42.1631 25.083 46.2988Q21.377 50.3271 19.3091 56.4771Q17.2412 62.627 17.2412 70.6836Q17.2412 79.1162 19.5239 85.1855Q21.8066 91.2549 25.4053 95.0684Q29.165 99.043 34.187 100.95Q39.209 102.856 44.7949 102.856Q52.4756 102.856 59.1895 100.225Q65.9033 97.5928 71.7578 92.3291L72.5098 92.3291L72.5098 104.79ZM95.5482 110.591L85.4506 110.591L85.4506 27.0166L95.5482 27.0166L95.5482 110.591ZM165.262 80.6201Q165.262 95.2832 157.742 103.77Q150.222 112.256 137.6 112.256Q124.871 112.256 117.378 103.77Q109.886 95.2832 109.886 80.6201Q109.886 65.957 117.378 57.4438Q124.871 48.9307 137.6 48.9307Q150.222 48.9307 157.742 57.4438Q165.262 65.957 165.262 80.6201ZM154.842 80.6201Q154.842 68.9648 150.276 63.2983Q145.711 57.6318 137.6 57.6318Q129.383 57.6318 124.844 63.2983Q120.305 68.9648 120.305 80.6201Q120.305 91.8994 124.871 97.7271Q129.436 103.555 137.6 103.555Q145.657 103.555 150.249 97.7808Q154.842 92.0068 154.842 80.6201ZM229.228 110.591L219.13 110.591L219.13 103.931Q214.028 107.959 209.355 110.107Q204.682 112.256 199.042 112.256Q189.589 112.256 184.325 106.482Q179.062 100.708 179.062 89.5361L179.062 50.5957L189.159 50.5957L189.159 84.7559Q189.159 89.3213 189.589 92.5708Q190.019 95.8203 191.415 98.1299Q192.865 100.493 195.175 101.567Q197.485 102.642 201.889 102.642Q205.81 102.642 210.456 100.601Q215.102 98.5596 219.13 95.3906L219.13 50.5957L229.228 50.5957L229.228 110.591ZM296.363 110.591L286.265 110.591L286.265 104.307Q281.915 108.066 277.188 110.161Q272.462 112.256 266.929 112.256Q256.187 112.256 249.876 103.984Q243.565 95.7129 243.565 81.0498Q243.565 73.4229 245.74 67.4609Q247.916 61.499 251.622 57.3096Q255.274 53.2275 260.135 51.0791Q264.996 48.9307 270.206 48.9307Q274.932 48.9307 278.585 49.9243Q282.237 50.918 286.265 53.0127L286.265 27.0166L296.363 27.0166L296.363 110.591ZM286.265 95.8203L286.265 61.3916Q282.183 59.5654 278.961 58.8672Q275.738 58.1689 271.924 58.1689Q263.438 58.1689 258.712 64.0771Q253.985 69.9854 253.985 80.835Q253.985 91.5234 257.637 97.0825Q261.29 102.642 269.346 102.642Q273.643 102.642 278.047 100.735Q282.452 98.8281 286.265 95.8203ZM366.721 40.0684L326.276 40.0684L326.276 62.627L361.027 62.627L361.027 72.0801L326.276 72.0801L326.276 110.591L315.642 110.591L315.642 30.6152L366.721 30.6152L366.721 40.0684ZM386.859 110.591L376.761 110.591L376.761 27.0166L386.859 27.0166L386.859 110.591ZM452.06 110.591L442.016 110.591L442.016 104.199Q440.674 105.112 438.391 106.75Q436.108 108.389 433.96 109.355Q431.435 110.591 428.159 111.423Q424.883 112.256 420.478 112.256Q412.368 112.256 406.728 106.885Q401.089 101.514 401.089 93.1885Q401.089 86.3672 404.016 82.1509Q406.943 77.9346 412.368 75.5176Q417.846 73.1006 425.527 72.2412Q433.208 71.3818 442.016 70.9521L442.016 69.3945Q442.016 65.957 440.808 63.7012Q439.599 61.4453 437.344 60.1563Q435.195 58.9209 432.187 58.4912Q429.18 58.0615 425.903 58.0615Q421.929 58.0615 417.041 59.1089Q412.153 60.1563 406.943 62.1436L406.406 62.1436L406.406 51.8848Q409.36 51.0791 414.946 50.1123Q420.532 49.1455 425.957 49.1455Q432.295 49.1455 436.994 50.1929Q441.694 51.2402 445.132 53.7646Q448.515 56.2354 450.288 60.1563Q452.06 64.0771 452.06 69.8779L452.06 110.591ZM442.016 95.8203L442.016 79.1162Q437.397 79.3848 431.14 79.9219Q424.883 80.459 421.23 81.4795Q416.88 82.7148 414.194 85.3198Q411.509 87.9248 411.509 92.4902Q411.509 97.6465 414.624 100.251Q417.739 102.856 424.131 102.856Q429.448 102.856 433.852 100.789Q438.257 98.7207 442.016 95.8203ZM507.54 61.6064L507.003 61.6064Q504.747 61.0693 502.626 60.8276Q500.504 60.5859 497.604 60.5859Q492.931 60.5859 488.58 62.6538Q484.23 64.7217 480.201 67.998L480.201 110.591L470.104 110.591L470.104 50.5957L480.201 50.5957L480.201 59.458Q486.217 54.624 490.809 52.6099Q495.402 50.5957 500.182 50.5957Q502.814 50.5957 503.995 50.73Q505.177 50.8643 507.54 51.2402L507.54 61.6064ZM565.867 81.6406L521.663 81.6406Q521.663 87.1729 523.328 91.2817Q524.993 95.3906 527.893 98.0225Q530.686 100.601 534.526 101.89Q538.367 103.179 542.986 103.179Q549.109 103.179 555.313 100.735Q561.516 98.291 564.148 95.9277L564.685 95.9277L564.685 106.938Q559.583 109.087 554.265 110.537Q548.948 111.987 543.093 111.987Q528.162 111.987 519.783 103.904Q511.404 95.8203 511.404 80.9424Q511.404 66.2256 519.434 57.5781Q527.464 48.9307 540.569 48.9307Q552.708 48.9307 559.287 56.0205Q565.867 63.1104 565.867 76.1621L565.867 81.6406ZM556.038 73.9063Q555.984 65.957 552.036 61.6064Q548.089 57.2559 540.032 57.2559Q531.922 57.2559 527.114 62.0361Q522.307 66.8164 521.663 73.9063L556.038 73.9063Z" />
        </g>
      </g>
      <path d="M9.74599 2.50248C7.73771 2.50514 5.88783 3.24825 4.90745 4.44615C4.49311 4.30835 4.03846 4.23655 3.57768 4.23615C2.08542 4.23874 0.815347 4.97938 0.576741 5.98615C-0.983336 6.43248 -1.99911 7.47509 -2 8.63098C-1.99788 10.2152 -0.117896 11.4983 2.19968 11.4975C2.37585 11.4963 2.55174 11.4875 2.7263 11.4712L15.0339 11.4712C17.0012 11.3126 18.4829 10.1541 18.4846 8.79432L18.4846 8.78907C18.4832 7.50474 17.1488 6.40173 15.3035 6.15939C15.1933 4.11673 12.7371 2.50019 9.74633 2.50189L9.74599 2.50248Z" id="Shape" fill="#E6B058" stroke="none" />
    </g>
  </g>
</svg>