<?xml version="1.0" encoding="utf-8"?>
<svg width="108px" height="20px" viewBox="0 0 108 20" version="1.1" xmlns:xlink="http://www.w3.org/1999/xlink" xmlns="http://www.w3.org/2000/svg">
  <defs>
    <linearGradient gradientUnits="objectBoundingBox" x1="0" y1="0" x2="0" y2="1" id="gradient_1">
      <stop offset="0%" stop-color="#FCFCFC" stop-opacity="0" />
      <stop offset="100%" stop-color="#000000" stop-opacity="0.101960786" />
    </linearGradient>
    <filter id="filter_1">
      <feColorMatrix in="SourceGraphic" type="matrix" values="0 0 0 0 0.98039216 0 0 0 0 0.98039216 0 0 0 0 0.98039216 0 0 0 1 0" color-interpolation-filters="sRGB" />
    </filter>
    <path d="M108 0L108 0L108 20L0 20L0 0L108 0Z" id="path_1" />
    <path d="M14 0L14 0L14 14L0 14L0 0L14 0Z" id="path_2" />
    <clipPath id="clip_1">
      <use xlink:href="#path_1" clip-rule="evenodd" fill-rule="evenodd" />
    </clipPath>
    <clipPath id="clip_2">
      <use xlink:href="#path_2" clip-rule="evenodd" fill-rule="evenodd" />
    </clipPath>
  </defs>
  <g id="熙然-下班啦" clip-path="url(#clip_1)">
    <path d="M108 0L108 0L108 20L0 20L0 0L108 0Z" id="熙然-下班啦" fill="none" stroke="none" />
    <g id="Group" transform="translate(0.5 0.5)">
      <path d="M0 4L0 2C0 1.44772 0.195262 0.976311 0.585786 0.585786C0.976311 0.195262 1.44772 0 2 0L58 0C58.5523 0 59.0237 0.195262 59.4142 0.585786C59.8047 0.976311 60 1.44772 60 2L60 17C60 17.5523 59.8047 18.0237 59.4142 18.4142C59.0237 18.8047 58.5523 19 58 19L2 19C1.44772 19 0.976311 18.8047 0.585786 18.4142C0.195262 18.0237 0 17.5523 0 17L0 4Z" id="Line" fill="#FCFCFC" fill-rule="evenodd" stroke="none" />
      <path d="M66 4L66 2C66 1.44772 66.1953 0.976311 66.5858 0.585786C66.9763 0.195262 67.4477 0 68 0L105 0C105.552 0 106.024 0.195262 106.414 0.585786C106.805 0.976311 107 1.44772 107 2L107 17C107 17.5523 106.805 18.0237 106.414 18.4142C106.024 18.8047 105.552 19 105 19L68 19C67.4477 19 66.9763 18.8047 66.5858 18.4142C66.1953 18.0237 66 17.5523 66 17L66 4Z" id="Line" fill="#FAFAFA" fill-rule="evenodd" stroke="#D5D5D5" stroke-width="1" />
      <path d="M65.5 7L66 7L66 12L65.5 12L65.5 7Z" id="Rectangle" fill="#000000" fill-rule="evenodd" stroke="#FAFAFA" stroke-width="1" />
      <g id="Group" transform="translate(62 6)" filter="url(#filter_1)">
        <path d="M4 0L1 3" id="Line" fill="none" fill-rule="evenodd" stroke="#D5D5D5" stroke-width="1" />
        <path d="M1 3L1 5" id="Line" fill="none" fill-rule="evenodd" stroke="#D5D5D5" stroke-width="1" />
        <path d="M1 4L4 7" id="Line" fill="none" fill-rule="evenodd" stroke="#D5D5D5" stroke-width="1" />
      </g>
    </g>
    <g id="Image" clip-path="url(#clip_2)" transform="translate(5 3)">
      <path d="M14 0L14 0L14 14L0 14L0 0L14 0Z" id="Image" fill="#130C0C" fill-opacity="0" stroke="none" />
      <path d="M2.70958 4.35867C3.93458 4.66783 5.49733 4.82533 7.38092 4.82533C9.30533 4.82533 10.8331 4.66783 12.0522 4.35867C13.3531 4.05533 13.9767 3.647 13.9767 3.262C13.9767 2.98783 13.6967 2.7195 13.1892 2.51533C13.3058 2.59117 13.3933 2.7195 13.3933 2.8595C13.3933 3.25033 12.8042 3.57117 11.6206 3.8395C10.5239 4.07867 9.1245 4.24783 7.42175 4.24783C5.77675 4.24783 4.31317 4.07867 3.25792 3.85117C2.12042 3.57117 1.52542 3.26783 1.52542 2.87117C1.52542 2.70783 1.60125 2.56783 1.82875 2.4045C1.11708 2.67867 0.732083 2.912 0.732083 3.262C0.772916 3.65867 1.40875 4.05533 2.70958 4.35867L2.70958 4.35867ZM5.44483 3.09867C6.769 2.982 7.15342 2.13092 8.7045 1.99092C9.46866 1.93258 9.95283 2.08425 10.0053 2.35258C10.052 2.60342 9.67283 2.77258 9.212 2.80758C8.57617 2.87175 8.31367 2.64425 8.26117 2.42842C7.78867 2.48092 7.71283 2.67925 7.73617 2.81925C7.78867 3.08758 8.36033 3.35592 9.34033 3.26258C10.4487 3.17508 10.822 2.73758 10.7287 2.30008C10.612 1.72842 9.76033 1.25008 8.232 1.39592C6.27258 1.57092 6.28425 2.48092 4.949 2.59175C4.40066 2.64425 4.09733 2.51592 4.04483 2.30008C4.00983 2.08425 4.27816 1.97925 4.59316 1.95592C4.88483 1.92675 5.24066 1.97925 5.40983 2.07258C5.53233 2.00842 5.57316 1.94425 5.5615 1.86842C5.50316 1.66425 5.10066 1.57675 4.59316 1.61175C3.6015 1.69925 3.6015 2.14258 3.6365 2.34092C3.73567 2.84842 4.49983 3.18675 5.44483 3.09925L5.44483 3.09867ZM12.1047 5.33867C10.8797 5.6245 9.317 5.81058 7.43342 5.81058C5.50842 5.81058 3.93983 5.61225 2.72125 5.34392C1.62458 5.06392 1.04125 4.75475 0.837083 4.43392C0.942083 5.15142 1.12292 5.84558 1.35625 6.50475C1.07625 6.67975 0.825416 6.89558 0.597916 7.18725C0.18174 7.69465 -0.0302139 8.33904 0.00349907 8.99442C0.0457722 9.59958 0.347819 10.1569 0.831832 10.5228C1.33933 10.9194 1.88767 11.0361 2.51125 10.9194C2.75041 10.8786 3.01875 10.7561 3.26375 10.6744C2.75041 10.6744 2.31875 10.5111 1.88708 10.1669C1.41334 9.83792 1.09833 9.32629 1.01791 8.75525C0.901248 8.20692 1.01791 7.69942 1.32708 7.25083C1.39708 7.16333 1.47291 7.0875 1.55458 7.0175C1.72958 7.44333 1.91625 7.86333 2.12625 8.25417C2.59875 8.97167 3.07125 9.59525 3.54375 10.2719C3.74791 10.6686 3.88208 11.0594 3.97541 11.4497C4.29148 11.8862 4.75227 12.1963 5.27566 12.3247C5.9465 12.558 6.6465 12.663 7.36341 12.6222L7.43925 12.6222C8.16909 12.6541 8.89857 12.5512 9.59117 12.3188C10.0936 12.1719 10.5354 11.8672 10.8512 11.4497L10.892 11.4497C10.9678 11.0588 11.0962 10.668 11.2828 10.2713C11.7489 9.58883 12.2272 8.97108 12.6939 8.25417C13.337 7.06376 13.7783 5.77503 14 4.44034C13.7492 4.79034 13.16 5.0995 12.1042 5.33867L12.1047 5.33867Z" id="Shape" fill="#BF9600" fill-rule="evenodd" stroke="none" />
    </g>
    <g id="Group" transform="translate(0.5 0.5)">
      <path d="M0 4L0 2C0 1.44772 0.195262 0.976311 0.585786 0.585786C0.976311 0.195262 1.44772 0 2 0L58 0C58.5523 0 59.0237 0.195262 59.4142 0.585786C59.8047 0.976311 60 1.44772 60 2L60 17C60 17.5523 59.8047 18.0237 59.4142 18.4142C59.0237 18.8047 58.5523 19 58 19L2 19C1.44772 19 0.976311 18.8047 0.585786 18.4142C0.195262 18.0237 0 17.5523 0 17L0 4Z" id="llink" fill="url(#gradient_1)" fill-rule="evenodd" stroke="#D5D5D5" stroke-width="1" />
      <g id="熙然" transform="matrix(0.1 0 0 0.1 28.5 3.84375)">
        <g fill="#FFFFFF" stroke="none" id="熙然">
          <path d="M45.5469 89.6436L56.2354 89.4287Q57.0947 89.4287 57.2559 89.6436Q57.417 89.8584 57.417 90.6104L57.417 97.915Q57.417 98.7207 57.229 98.9087Q57.041 99.0967 56.2354 99.0967L45.5469 98.8818L26.9092 98.8818L12.5146 99.0967Q11.6553 99.0967 11.4941 98.8818Q11.333 98.667 11.333 97.915L11.5479 82.8223L11.5479 48.1787L11.333 33.0322Q11.333 32.1729 11.5479 31.958Q11.7627 31.7969 12.5146 31.7969L26.9092 32.0117L43.0762 32.0117L55.6982 31.7969Q56.6113 31.7969 56.8262 32.0117Q56.9873 32.2266 56.9873 33.0322L56.9873 40.498Q56.9873 41.3574 56.7725 41.5186Q56.5576 41.6797 55.6982 41.6797L44.6338 41.4648L44.6338 51.9385L52.7979 51.6699Q54.0332 51.6699 54.0332 52.7979L53.8184 60.9619L53.8184 69.9316L54.0332 77.9883Q54.0332 78.8477 53.8184 79.0088Q53.6035 79.1699 52.7979 79.1699L44.6338 78.9551L44.6338 89.6436L45.5469 89.6436ZM21.6455 41.4648L21.6455 89.6436L34.8584 89.6436L34.8584 78.9551Q31.7432 79.0088 29.3262 79.1162Q27.7148 79.1699 27.6074 79.1699Q26.6943 79.1699 26.5332 78.9551Q26.3721 78.7402 26.3721 77.9883L26.5869 69.9316L26.5869 60.9619L26.3721 52.7979Q26.3721 51.6699 27.6074 51.6699L34.8584 51.9385L34.8584 41.4648L21.6455 41.4648ZM45.2246 71.3818L45.2246 59.5117L35.1807 59.5117L35.1807 71.3818L45.2246 71.3818ZM80.6201 98.8818Q71.9727 98.8818 68.6963 98.291Q65.6348 97.7539 63.8623 96.25Q61.2305 93.8867 61.2305 86.4746L61.2305 42.8076L61.0156 33.0322Q61.0156 32.1729 61.2305 31.958Q61.4453 31.7969 62.251 31.7969L73.4766 32.0117L86.582 32.0117L97.8613 31.7969Q98.7744 31.7969 98.9355 32.0117Q99.0967 32.2266 99.0967 33.0322L98.8818 42.8076L98.8818 57.417L99.0967 67.085Q99.0967 68.0518 98.8818 68.2666Q98.667 68.4277 97.8613 68.4277L86.582 68.2129L71.5967 68.2129L71.5967 82.0703Q71.5967 86.4746 72.1338 87.4414Q72.7783 88.5156 75.4639 88.7305Q76.9678 88.8916 81.4258 88.8916Q89.1602 88.8916 91.2012 86.4746Q93.5644 83.7891 93.7256 75.4639Q96.7334 77.5049 100.762 78.7939Q102.964 79.4385 103.447 79.7607Q104.038 80.1904 104.038 81.1572Q104.038 81.748 103.823 83.1445Q102.749 90.3418 99.4189 94.2627Q96.9482 97.1631 91.8457 98.1299Q87.9785 98.8818 80.6201 98.8818ZM71.5967 41.4648L71.5967 58.8672L88.7842 58.8672L88.7842 41.4648L71.5967 41.4648ZM19.4971 103.501Q19.9268 102.588 20.4102 102.588Q20.7861 102.588 21.8066 103.071L28.4668 106.294Q29.7559 106.885 29.7559 107.314Q29.7559 107.583 29.4873 108.12Q24.4922 118.594 16.7041 127.08Q16.2207 127.725 15.7373 127.725Q15.3613 127.725 14.3945 126.973L7.78809 121.655Q6.82129 120.85 6.82129 120.366Q6.82129 119.883 7.46582 119.346Q15.0928 112.471 19.4971 103.501ZM90.6641 103.179Q97.1631 110.752 102.964 120.044Q103.394 120.742 103.394 121.064Q103.394 121.602 102.319 122.246L94.9072 126.597Q93.9404 127.295 93.6182 127.295Q93.2422 127.295 92.7051 126.436Q88.0859 117.251 80.7275 107.905Q80.3516 107.476 80.3516 107.207Q80.3516 106.724 81.6406 106.187L88.3545 102.856Q89.0527 102.534 89.4824 102.534Q90.0732 102.534 90.6641 103.179ZM46.2988 105.273Q46.5674 105.273 46.9434 105.273Q47.9639 105.273 48.1787 106.509Q50.0586 115.21 50.3809 124.287Q50.3809 125.737 48.9307 125.845L40.6055 126.597Q40.2832 126.65 40.0146 126.65Q38.833 126.65 38.833 125.2Q38.5107 115.425 37.168 107.261Q37.1143 106.992 37.1143 106.777Q37.1143 105.972 38.833 105.811L46.2988 105.273ZM58.1689 107.261Q58.0078 106.831 58.0078 106.616Q58.0078 106.133 59.5117 105.811L66.8701 104.414Q67.5146 104.253 67.8369 104.253Q68.5352 104.253 68.9648 105.273Q72.1875 112.417 74.2285 122.461Q74.3359 122.944 74.3359 123.159Q74.3359 123.965 72.9395 124.287L64.9902 125.952Q64.2383 126.113 63.916 126.113Q63.2178 126.113 63.0566 125.093Q61.4453 115.532 58.1689 107.261ZM197.549 60.6396L190.728 60.6396Q197.441 78.5791 215.273 87.9785Q212.373 91.7383 210.547 96.0352Q209.419 98.5596 208.667 98.5596Q207.915 98.5596 206.143 97.2168Q190.62 86.3135 184.551 69.2871Q178.75 87.1191 162.476 97.2705Q160.703 98.3447 160.059 98.3447Q159.468 98.3447 157.856 96.25Q155.01 92.4902 151.68 90.4492Q171.23 80.083 176.333 60.6396L174.346 60.6396L160.811 60.8545Q150.229 85.6689 126.382 98.7207Q124.395 99.6875 123.643 99.6875Q122.837 99.6875 121.333 97.2705Q119.023 93.6719 115.801 91.416Q126.543 87.1191 134.976 79.5459Q131.484 75.4639 126.597 71.8115Q125.845 71.3281 125.845 71.0596Q125.845 70.791 126.704 69.9854L131.001 65.6885Q131.753 64.9365 132.129 64.9365Q132.451 64.9365 133.203 65.4199Q137.339 68.0518 141.689 72.6172Q143.516 70.4688 145.61 67.1924Q142.012 63.3252 137.446 60.2637Q136.802 59.8877 136.802 59.5654Q136.802 59.2432 137.5 58.4375L141.528 53.6572Q142.28 52.8516 142.656 52.8516Q142.979 52.8516 143.623 53.2275Q147.598 55.8057 150.552 58.4375Q153.076 52.6904 154.312 48.0713L140.347 48.0713Q134.17 58.8672 125.361 66.5479Q123.428 68.3203 122.622 68.3203Q121.763 68.3203 120.313 66.2256Q118.11 63.0566 115.264 61.0693Q129.551 50.4883 136.05 33.3545Q137.446 30.1318 138.037 26.2109Q143.247 27.0166 147.598 28.3057Q149.263 28.7354 149.263 29.7021Q149.263 30.3467 148.511 31.2598Q147.544 32.1729 146.523 34.8584L144.966 38.6182L156.621 38.6182Q158.179 38.6182 158.608 38.4033Q159.736 37.9736 160.166 37.9736Q161.24 37.9736 163.765 40.3906Q166.987 43.291 166.987 44.4727Q166.987 45.2783 166.182 46.1914Q165.752 46.8359 164.57 50.3809L177.944 50.3809Q178.213 48.0176 178.428 42.8076Q178.428 32.2266 177.837 27.6074Q183.799 27.6074 188.74 28.1445Q190.513 28.5205 190.513 29.3799Q190.513 30.293 189.868 31.3672Q189.17 32.4951 189.17 41.8945Q189.17 44.9023 188.74 50.3809L197.549 50.3809L211.191 50.166Q212.051 50.166 212.212 50.3809Q212.373 50.5957 212.373 51.3477L212.373 59.7266Q212.373 60.8545 211.191 60.8545L197.549 60.6396ZM199.966 99.3652Q208.022 108.818 213.394 119.238Q213.716 119.883 213.716 120.151Q213.716 120.635 212.48 121.333L205.552 125.63Q204.639 126.113 204.209 126.113Q203.726 126.113 203.35 125.254Q198.892 115.264 190.835 104.092Q190.405 103.501 190.405 103.232Q190.405 102.749 191.587 102.212L197.764 99.0967Q198.623 98.7207 198.999 98.7207Q199.429 98.7207 199.966 99.3652ZM130.356 100.762Q130.679 99.8486 131.108 99.8486Q131.484 99.8486 132.559 100.332L138.574 103.286Q139.702 103.823 139.702 104.36Q139.702 104.683 139.487 105.273Q134.17 117.734 126.597 126.113Q125.952 126.758 125.63 126.758Q125.308 126.758 124.287 126.06L117.788 121.226Q116.606 120.313 116.606 119.937Q116.606 119.668 117.144 119.131Q125.522 111.235 130.356 100.762ZM148.94 102.642L155.869 102.104Q156.514 102.051 156.675 102.051Q157.534 102.051 157.856 103.179Q159.521 110.107 160.596 123.857Q160.596 125.361 158.823 125.522L151.035 125.952Q150.552 126.006 150.229 126.006Q149.155 126.006 149.155 124.878Q149.155 113.545 147.383 104.092Q147.329 103.77 147.329 103.555Q147.329 102.749 148.94 102.642ZM179.072 102.212Q182.617 110.322 185.249 122.246Q185.356 122.729 185.356 122.998Q185.356 123.75 183.906 124.072L175.957 125.845Q175.098 126.06 174.775 126.06Q174.185 126.06 173.97 124.932Q172.09 112.847 169.136 104.629Q168.921 104.092 168.921 103.877Q168.921 103.286 170.371 102.964L176.978 101.406Q177.676 101.245 178.052 101.245Q178.643 101.245 179.072 102.212ZM201.416 31.1523Q205.82 36.2549 209.634 42.3779Q210.01 42.9688 210.01 43.291Q210.01 43.7744 208.989 44.4727L203.618 47.749Q202.598 48.3936 202.383 48.3936Q202.007 48.3936 201.47 47.4268Q198.301 41.3037 193.574 35.6641Q193.037 34.9658 193.037 34.6436Q193.037 34.2139 194.111 33.6768L199.321 30.9375Q200.127 30.5078 200.503 30.5078Q200.933 30.5078 201.416 31.1523Z" />
        </g>
      </g>
      <g id="熙然" transform="matrix(0.1 0 0 0.1 28.5 2.84375)">
        <g fill="#333333" stroke="none" id="熙然">
          <path d="M45.5469 89.6436L56.2354 89.4287Q57.0947 89.4287 57.2559 89.6436Q57.417 89.8584 57.417 90.6104L57.417 97.915Q57.417 98.7207 57.229 98.9087Q57.041 99.0967 56.2354 99.0967L45.5469 98.8818L26.9092 98.8818L12.5146 99.0967Q11.6553 99.0967 11.4941 98.8818Q11.333 98.667 11.333 97.915L11.5479 82.8223L11.5479 48.1787L11.333 33.0322Q11.333 32.1729 11.5479 31.958Q11.7627 31.7969 12.5146 31.7969L26.9092 32.0117L43.0762 32.0117L55.6982 31.7969Q56.6113 31.7969 56.8262 32.0117Q56.9873 32.2266 56.9873 33.0322L56.9873 40.498Q56.9873 41.3574 56.7725 41.5186Q56.5576 41.6797 55.6982 41.6797L44.6338 41.4648L44.6338 51.9385L52.7979 51.6699Q54.0332 51.6699 54.0332 52.7979L53.8184 60.9619L53.8184 69.9316L54.0332 77.9883Q54.0332 78.8477 53.8184 79.0088Q53.6035 79.1699 52.7979 79.1699L44.6338 78.9551L44.6338 89.6436L45.5469 89.6436ZM21.6455 41.4648L21.6455 89.6436L34.8584 89.6436L34.8584 78.9551Q31.7432 79.0088 29.3262 79.1162Q27.7148 79.1699 27.6074 79.1699Q26.6943 79.1699 26.5332 78.9551Q26.3721 78.7402 26.3721 77.9883L26.5869 69.9316L26.5869 60.9619L26.3721 52.7979Q26.3721 51.6699 27.6074 51.6699L34.8584 51.9385L34.8584 41.4648L21.6455 41.4648ZM45.2246 71.3818L45.2246 59.5117L35.1807 59.5117L35.1807 71.3818L45.2246 71.3818ZM80.6201 98.8818Q71.9727 98.8818 68.6963 98.291Q65.6348 97.7539 63.8623 96.25Q61.2305 93.8867 61.2305 86.4746L61.2305 42.8076L61.0156 33.0322Q61.0156 32.1729 61.2305 31.958Q61.4453 31.7969 62.251 31.7969L73.4766 32.0117L86.582 32.0117L97.8613 31.7969Q98.7744 31.7969 98.9355 32.0117Q99.0967 32.2266 99.0967 33.0322L98.8818 42.8076L98.8818 57.417L99.0967 67.085Q99.0967 68.0518 98.8818 68.2666Q98.667 68.4277 97.8613 68.4277L86.582 68.2129L71.5967 68.2129L71.5967 82.0703Q71.5967 86.4746 72.1338 87.4414Q72.7783 88.5156 75.4639 88.7305Q76.9678 88.8916 81.4258 88.8916Q89.1602 88.8916 91.2012 86.4746Q93.5644 83.7891 93.7256 75.4639Q96.7334 77.5049 100.762 78.7939Q102.964 79.4385 103.447 79.7607Q104.038 80.1904 104.038 81.1572Q104.038 81.748 103.823 83.1445Q102.749 90.3418 99.4189 94.2627Q96.9482 97.1631 91.8457 98.1299Q87.9785 98.8818 80.6201 98.8818ZM71.5967 41.4648L71.5967 58.8672L88.7842 58.8672L88.7842 41.4648L71.5967 41.4648ZM19.4971 103.501Q19.9268 102.588 20.4102 102.588Q20.7861 102.588 21.8066 103.071L28.4668 106.294Q29.7559 106.885 29.7559 107.314Q29.7559 107.583 29.4873 108.12Q24.4922 118.594 16.7041 127.08Q16.2207 127.725 15.7373 127.725Q15.3613 127.725 14.3945 126.973L7.78809 121.655Q6.82129 120.85 6.82129 120.366Q6.82129 119.883 7.46582 119.346Q15.0928 112.471 19.4971 103.501ZM90.6641 103.179Q97.1631 110.752 102.964 120.044Q103.394 120.742 103.394 121.064Q103.394 121.602 102.319 122.246L94.9072 126.597Q93.9404 127.295 93.6182 127.295Q93.2422 127.295 92.7051 126.436Q88.0859 117.251 80.7275 107.905Q80.3516 107.476 80.3516 107.207Q80.3516 106.724 81.6406 106.187L88.3545 102.856Q89.0527 102.534 89.4824 102.534Q90.0732 102.534 90.6641 103.179ZM46.2988 105.273Q46.5674 105.273 46.9434 105.273Q47.9639 105.273 48.1787 106.509Q50.0586 115.21 50.3809 124.287Q50.3809 125.737 48.9307 125.845L40.6055 126.597Q40.2832 126.65 40.0146 126.65Q38.833 126.65 38.833 125.2Q38.5107 115.425 37.168 107.261Q37.1143 106.992 37.1143 106.777Q37.1143 105.972 38.833 105.811L46.2988 105.273ZM58.1689 107.261Q58.0078 106.831 58.0078 106.616Q58.0078 106.133 59.5117 105.811L66.8701 104.414Q67.5146 104.253 67.8369 104.253Q68.5352 104.253 68.9648 105.273Q72.1875 112.417 74.2285 122.461Q74.3359 122.944 74.3359 123.159Q74.3359 123.965 72.9395 124.287L64.9902 125.952Q64.2383 126.113 63.916 126.113Q63.2178 126.113 63.0566 125.093Q61.4453 115.532 58.1689 107.261ZM197.549 60.6396L190.728 60.6396Q197.441 78.5791 215.273 87.9785Q212.373 91.7383 210.547 96.0352Q209.419 98.5596 208.667 98.5596Q207.915 98.5596 206.143 97.2168Q190.62 86.3135 184.551 69.2871Q178.75 87.1191 162.476 97.2705Q160.703 98.3447 160.059 98.3447Q159.468 98.3447 157.856 96.25Q155.01 92.4902 151.68 90.4492Q171.23 80.083 176.333 60.6396L174.346 60.6396L160.811 60.8545Q150.229 85.6689 126.382 98.7207Q124.395 99.6875 123.643 99.6875Q122.837 99.6875 121.333 97.2705Q119.023 93.6719 115.801 91.416Q126.543 87.1191 134.976 79.5459Q131.484 75.4639 126.597 71.8115Q125.845 71.3281 125.845 71.0596Q125.845 70.791 126.704 69.9854L131.001 65.6885Q131.753 64.9365 132.129 64.9365Q132.451 64.9365 133.203 65.4199Q137.339 68.0518 141.689 72.6172Q143.516 70.4688 145.61 67.1924Q142.012 63.3252 137.446 60.2637Q136.802 59.8877 136.802 59.5654Q136.802 59.2432 137.5 58.4375L141.528 53.6572Q142.28 52.8516 142.656 52.8516Q142.979 52.8516 143.623 53.2275Q147.598 55.8057 150.552 58.4375Q153.076 52.6904 154.312 48.0713L140.347 48.0713Q134.17 58.8672 125.361 66.5479Q123.428 68.3203 122.622 68.3203Q121.763 68.3203 120.313 66.2256Q118.11 63.0566 115.264 61.0693Q129.551 50.4883 136.05 33.3545Q137.446 30.1318 138.037 26.2109Q143.247 27.0166 147.598 28.3057Q149.263 28.7354 149.263 29.7021Q149.263 30.3467 148.511 31.2598Q147.544 32.1729 146.523 34.8584L144.966 38.6182L156.621 38.6182Q158.179 38.6182 158.608 38.4033Q159.736 37.9736 160.166 37.9736Q161.24 37.9736 163.765 40.3906Q166.987 43.291 166.987 44.4727Q166.987 45.2783 166.182 46.1914Q165.752 46.8359 164.57 50.3809L177.944 50.3809Q178.213 48.0176 178.428 42.8076Q178.428 32.2266 177.837 27.6074Q183.799 27.6074 188.74 28.1445Q190.513 28.5205 190.513 29.3799Q190.513 30.293 189.868 31.3672Q189.17 32.4951 189.17 41.8945Q189.17 44.9023 188.74 50.3809L197.549 50.3809L211.191 50.166Q212.051 50.166 212.212 50.3809Q212.373 50.5957 212.373 51.3477L212.373 59.7266Q212.373 60.8545 211.191 60.8545L197.549 60.6396ZM199.966 99.3652Q208.022 108.818 213.394 119.238Q213.716 119.883 213.716 120.151Q213.716 120.635 212.48 121.333L205.552 125.63Q204.639 126.113 204.209 126.113Q203.726 126.113 203.35 125.254Q198.892 115.264 190.835 104.092Q190.405 103.501 190.405 103.232Q190.405 102.749 191.587 102.212L197.764 99.0967Q198.623 98.7207 198.999 98.7207Q199.429 98.7207 199.966 99.3652ZM130.356 100.762Q130.679 99.8486 131.108 99.8486Q131.484 99.8486 132.559 100.332L138.574 103.286Q139.702 103.823 139.702 104.36Q139.702 104.683 139.487 105.273Q134.17 117.734 126.597 126.113Q125.952 126.758 125.63 126.758Q125.308 126.758 124.287 126.06L117.788 121.226Q116.606 120.313 116.606 119.937Q116.606 119.668 117.144 119.131Q125.522 111.235 130.356 100.762ZM148.94 102.642L155.869 102.104Q156.514 102.051 156.675 102.051Q157.534 102.051 157.856 103.179Q159.521 110.107 160.596 123.857Q160.596 125.361 158.823 125.522L151.035 125.952Q150.552 126.006 150.229 126.006Q149.155 126.006 149.155 124.878Q149.155 113.545 147.383 104.092Q147.329 103.77 147.329 103.555Q147.329 102.749 148.94 102.642ZM179.072 102.212Q182.617 110.322 185.249 122.246Q185.356 122.729 185.356 122.998Q185.356 123.75 183.906 124.072L175.957 125.845Q175.098 126.06 174.775 126.06Q174.185 126.06 173.97 124.932Q172.09 112.847 169.136 104.629Q168.921 104.092 168.921 103.877Q168.921 103.286 170.371 102.964L176.978 101.406Q177.676 101.245 178.052 101.245Q178.643 101.245 179.072 102.212ZM201.416 31.1523Q205.82 36.2549 209.634 42.3779Q210.01 42.9688 210.01 43.291Q210.01 43.7744 208.989 44.4727L203.618 47.749Q202.598 48.3936 202.383 48.3936Q202.007 48.3936 201.47 47.4268Q198.301 41.3037 193.574 35.6641Q193.037 34.9658 193.037 34.6436Q193.037 34.2139 194.111 33.6768L199.321 30.9375Q200.127 30.5078 200.503 30.5078Q200.933 30.5078 201.416 31.1523Z" />
        </g>
      </g>
      <g id="Text" transform="matrix(0.1 0 0 0.1 69.5 3.84375)">
        <g fill="#FFFFFF" stroke="none" id="下班啦">
          <path d="M21.5381 45.2246L7.68066 45.4395Q6.76758 45.4395 6.60645 45.2246Q6.44531 45.0098 6.44531 44.2578L6.44531 34.9658Q6.44531 34.1065 6.66016 33.9453Q6.875 33.7842 7.68066 33.7842L21.5381 33.999L88.4619 33.999L102.319 33.7842Q103.232 33.7842 103.394 33.999Q103.555 34.2139 103.555 34.9658L103.555 44.2578Q103.555 45.1172 103.34 45.2783Q103.125 45.4395 102.319 45.4395L88.4619 45.2246L59.0283 45.2246L59.0283 59.834Q78.9551 67.8906 93.1885 77.5586Q94.1016 78.0957 94.1016 78.6865Q94.1015 78.9551 93.5645 79.8682L88.3545 87.2266Q87.6025 88.4082 87.1191 88.4082Q86.7432 88.4082 86.1523 88.0322Q70.3613 77.29 59.0283 71.9727L59.0283 110.537L59.2432 125.522Q59.2432 126.382 58.9746 126.597Q58.7598 126.758 57.9004 126.758L47.8027 126.758Q46.8359 126.758 46.6748 126.489Q46.5137 126.328 46.5137 125.522L46.7285 110.537L46.7285 45.2246L21.5381 45.2246ZM202.383 123.32L186.431 123.32L174.346 123.535Q173.486 123.535 173.271 123.32Q173.11 123.105 173.11 122.354L173.11 113.652Q173.11 112.793 173.298 112.605Q173.486 112.417 174.346 112.417L186.431 112.632L190.62 112.632L190.62 80.6201L181.489 80.8887Q180.415 80.8887 180.415 79.6533L180.415 71.3818Q180.415 70.2002 181.489 70.2002L190.62 70.415L190.62 43.1299L181.274 43.3447Q180.415 43.3447 180.2 43.1299Q180.039 42.915 180.039 42.1631L180.039 33.7842Q180.039 32.9248 180.308 32.7637Q180.469 32.6025 181.274 32.6025L191.05 32.8174L202.275 32.8174L212.104 32.6025Q212.964 32.6025 213.125 32.8174Q213.286 33.0322 213.286 33.7842L213.286 42.1631Q213.286 43.0225 213.071 43.1836Q212.856 43.3447 212.104 43.3447L202.275 43.1299L201.738 43.1299L201.738 70.415L210.869 70.2002Q211.836 70.2002 211.997 70.415Q212.212 70.6299 212.212 71.3818L212.212 79.6533Q212.212 80.5127 211.997 80.7007Q211.782 80.8887 210.869 80.8887L201.738 80.6201L201.738 112.632L202.383 112.632L214.253 112.417Q215.22 112.417 215.435 112.632Q215.596 112.847 215.596 113.652L215.596 122.354Q215.596 123.213 215.381 123.374Q215.112 123.535 214.253 123.535L202.383 123.32ZM143.784 64.3457Q144.644 64.3457 144.858 64.5605Q145.02 64.7754 145.02 65.5811L145.02 73.0469Q145.02 74.0137 144.751 74.2285Q144.59 74.3897 143.784 74.3896Q143.677 74.3897 141.582 74.3359Q139.326 74.2285 136.641 74.1748L136.641 94.4238Q143.247 91.2012 147.544 88.6768Q147.437 90.5566 147.437 92.2217Q147.437 93.9404 147.49 95.9277Q147.598 97.3779 147.598 97.8076Q147.598 99.0967 147.168 99.6069Q146.738 100.117 144.751 101.245Q133.418 107.529 123.75 111.343Q121.064 112.524 120.313 113.115Q119.023 113.975 118.594 113.975Q117.573 113.975 116.929 112.524Q115.747 109.302 114.297 102.212Q118.755 101.353 123.428 99.7949Q124.609 99.4727 126.167 98.7744L126.167 74.1748L118.379 74.3896Q117.466 74.3897 117.305 74.1211Q117.144 73.9063 117.144 73.0469L117.144 65.5811Q117.144 64.7217 117.358 64.5068Q117.573 64.3457 118.379 64.3457L126.167 64.6143L126.167 42.915L117.144 43.1299Q116.284 43.1299 116.123 42.915Q115.962 42.7002 115.962 41.9482L115.962 34.2139Q115.962 33.3008 116.177 33.0859Q116.392 32.9248 117.144 32.9248L126.382 33.1396L135.889 33.1396L145.02 32.9248Q145.879 32.9248 146.04 33.1396Q146.201 33.4082 146.201 34.2139L146.201 41.9482Q146.201 42.8076 145.986 42.9688Q145.771 43.1299 145.02 43.1299L136.641 42.915L136.641 64.6143L143.784 64.3457ZM138.843 118.057Q156.89 108.872 162.798 92.6514Q165.054 86.6357 165.698 76.8604Q166.128 70.1465 166.128 55.2148L166.128 40.1758Q166.128 32.7637 165.322 27.3926Q170.317 27.5537 176.333 28.0371Q177.998 28.252 177.998 29.4873Q177.998 29.9707 177.354 31.6895Q176.548 33.6231 176.548 40.498Q176.548 70.1465 176.011 77.9883Q175.259 89.1602 172.52 96.7871Q166.45 113.652 149.854 124.824Q147.866 126.167 147.275 126.167Q146.685 126.167 144.858 123.857Q142.012 120.313 138.843 118.057ZM149.048 39.1553Q153.022 39.2627 159.253 39.8535Q160.811 40.0146 160.811 41.1426Q160.811 42.3242 160.112 43.4521Q159.468 44.6338 159.468 51.9385L159.468 74.2822L159.683 86.582Q159.683 87.5488 159.468 87.71Q159.307 87.9248 158.608 87.9248L150.767 87.9248Q149.854 87.9248 149.639 87.6563Q149.478 87.4414 149.478 86.582L149.692 74.2822L149.692 51.8311Q149.692 43.5059 149.048 39.1553ZM275 86.9043L275 91.6309L275.215 113.975Q275.215 118.647 274.409 120.903Q273.604 123.052 271.563 124.556Q269.629 125.952 267.104 126.382Q264.795 126.758 259.692 126.758Q257.114 126.758 256.631 126.274Q256.201 125.845 255.718 123.589Q254.751 118.916 252.764 115.317Q256.309 115.854 260.981 115.854Q263.13 115.854 263.882 114.995Q264.526 114.189 264.526 112.095L264.526 90.5566L262.754 91.0938Q259.961 91.9531 258.94 92.8662Q258.242 93.4033 257.275 93.4033Q256.255 93.4033 255.933 92.0605Q254.697 87.9248 253.623 81.6406Q257.705 81.1572 263.291 79.6533L264.526 79.3311L264.526 58.1152L255.933 58.3301Q255.073 58.3301 254.912 58.1152Q254.751 57.9004 254.751 57.0947L254.751 49.1992Q254.751 48.2861 254.966 48.125Q255.181 47.9639 255.933 47.9639L264.526 48.2324L264.526 42.5928Q264.526 33.6768 263.667 27.0703Q269.575 27.2314 274.57 27.876Q276.45 28.0371 276.45 28.9502Q276.45 29.4336 275.698 31.2598Q275 32.6025 275 42.3779L275 48.2324L282.036 47.9639Q282.896 47.9639 283.11 48.1787Q283.271 48.3936 283.271 49.1992L283.271 57.0947Q283.271 58.0078 283.003 58.1689Q282.842 58.3301 282.036 58.3301L275 58.1152L275 75.9473Q277.148 75.1416 283.594 72.6172Q283.271 76.1084 283.271 80.6738Q283.271 82.876 282.842 83.4131Q282.52 83.8428 280.693 84.5947Q278.76 85.4004 275 86.9043ZM243.311 89.5361L236.812 89.5361L236.812 99.6875Q236.812 100.547 236.597 100.708Q236.382 100.869 235.63 100.869L228.433 100.869Q227.573 100.869 227.412 100.654Q227.251 100.439 227.251 99.6875L227.466 72.9395L227.466 57.793L227.251 36.9531Q227.251 36.0938 227.466 35.9326Q227.681 35.7715 228.486 35.7715L236.597 35.9863L243.311 35.9863L251.421 35.7715Q252.334 35.7715 252.495 35.9863Q252.656 36.2012 252.656 36.9531L252.441 53.8184L252.441 70.0928L252.656 95.1758Q252.656 96.0352 252.441 96.1963Q252.227 96.3574 251.475 96.3574L244.546 96.3574Q243.633 96.3574 243.472 96.1426Q243.311 95.9277 243.311 95.1758L243.311 89.5361ZM243.311 79.0088L243.311 46.46L236.812 46.46L236.812 79.0088L243.311 79.0088ZM309.106 45.7617L311.846 45.7617L323.286 45.5469Q324.146 45.5469 324.307 45.7617Q324.468 45.9766 324.468 46.7822L324.468 55.1611Q324.468 56.0205 324.253 56.1816Q324.038 56.3428 323.286 56.3428L311.846 56.1279L298.096 56.1279L286.655 56.3428Q285.796 56.3428 285.581 56.1279Q285.42 55.9131 285.42 55.1611L285.42 46.7822Q285.42 45.9229 285.688 45.708Q285.85 45.5469 286.655 45.5469L298.096 45.7617L298.311 45.7617L298.311 40.2832Q298.311 34.2139 297.666 27.6611Q304.111 27.8223 308.623 28.4131Q310.288 28.5742 310.288 29.5947Q310.288 30.5615 309.751 31.7969Q309.106 33.4619 309.106 40.1758L309.106 45.7617ZM301.855 113.975Q307.334 90.8252 309.429 73.0469Q310.02 67.9443 310.181 62.7344Q316.465 63.8623 321.191 65.2588Q322.642 65.7959 322.642 66.709Q322.642 67.3535 321.782 68.6963Q320.977 69.6631 320.439 72.7246Q316.626 95.9814 312.168 113.975Q319.204 113.975 322.749 113.867L324.951 113.76Q325.811 113.76 325.972 113.975Q326.133 114.189 326.133 114.995L326.133 123.589Q326.133 124.448 325.918 124.609Q325.703 124.771 324.951 124.771L312.168 124.556L294.229 124.556L281.499 124.771Q280.64 124.771 280.425 124.556Q280.264 124.341 280.264 123.589L280.264 114.995Q280.264 114.136 280.452 113.948Q280.64 113.76 281.499 113.76L294.229 113.975L301.855 113.975ZM301.855 102.212Q301.855 102.373 301.855 102.534Q301.855 103.34 300.728 103.716L292.832 106.294Q292.456 106.401 292.188 106.401Q291.704 106.401 291.597 105.381Q290.361 86.582 286.548 67.085Q286.494 66.8164 286.494 66.6016Q286.494 65.957 287.515 65.5811L295.142 63.2715Q295.518 63.1641 295.732 63.1641Q296.323 63.1641 296.538 64.1309Q300.566 84.1113 301.855 102.212Z" />
        </g>
      </g>
      <g id="rlink" transform="matrix(0.1 0 0 0.1 69.5 2.84375)">
        <g fill="#333333" stroke="none" id="下班啦">
          <path d="M21.5381 45.2246L7.68066 45.4395Q6.76758 45.4395 6.60645 45.2246Q6.44531 45.0098 6.44531 44.2578L6.44531 34.9658Q6.44531 34.1065 6.66016 33.9453Q6.875 33.7842 7.68066 33.7842L21.5381 33.999L88.4619 33.999L102.319 33.7842Q103.232 33.7842 103.394 33.999Q103.555 34.2139 103.555 34.9658L103.555 44.2578Q103.555 45.1172 103.34 45.2783Q103.125 45.4395 102.319 45.4395L88.4619 45.2246L59.0283 45.2246L59.0283 59.834Q78.9551 67.8906 93.1885 77.5586Q94.1016 78.0957 94.1016 78.6865Q94.1015 78.9551 93.5645 79.8682L88.3545 87.2266Q87.6025 88.4082 87.1191 88.4082Q86.7432 88.4082 86.1523 88.0322Q70.3613 77.29 59.0283 71.9727L59.0283 110.537L59.2432 125.522Q59.2432 126.382 58.9746 126.597Q58.7598 126.758 57.9004 126.758L47.8027 126.758Q46.8359 126.758 46.6748 126.489Q46.5137 126.328 46.5137 125.522L46.7285 110.537L46.7285 45.2246L21.5381 45.2246ZM202.383 123.32L186.431 123.32L174.346 123.535Q173.486 123.535 173.271 123.32Q173.11 123.105 173.11 122.354L173.11 113.652Q173.11 112.793 173.298 112.605Q173.486 112.417 174.346 112.417L186.431 112.632L190.62 112.632L190.62 80.6201L181.489 80.8887Q180.415 80.8887 180.415 79.6533L180.415 71.3818Q180.415 70.2002 181.489 70.2002L190.62 70.415L190.62 43.1299L181.274 43.3447Q180.415 43.3447 180.2 43.1299Q180.039 42.915 180.039 42.1631L180.039 33.7842Q180.039 32.9248 180.308 32.7637Q180.469 32.6025 181.274 32.6025L191.05 32.8174L202.275 32.8174L212.104 32.6025Q212.964 32.6025 213.125 32.8174Q213.286 33.0322 213.286 33.7842L213.286 42.1631Q213.286 43.0225 213.071 43.1836Q212.856 43.3447 212.104 43.3447L202.275 43.1299L201.738 43.1299L201.738 70.415L210.869 70.2002Q211.836 70.2002 211.997 70.415Q212.212 70.6299 212.212 71.3818L212.212 79.6533Q212.212 80.5127 211.997 80.7007Q211.782 80.8887 210.869 80.8887L201.738 80.6201L201.738 112.632L202.383 112.632L214.253 112.417Q215.22 112.417 215.435 112.632Q215.596 112.847 215.596 113.652L215.596 122.354Q215.596 123.213 215.381 123.374Q215.112 123.535 214.253 123.535L202.383 123.32ZM143.784 64.3457Q144.644 64.3457 144.858 64.5605Q145.02 64.7754 145.02 65.5811L145.02 73.0469Q145.02 74.0137 144.751 74.2285Q144.59 74.3897 143.784 74.3896Q143.677 74.3897 141.582 74.3359Q139.326 74.2285 136.641 74.1748L136.641 94.4238Q143.247 91.2012 147.544 88.6768Q147.437 90.5566 147.437 92.2217Q147.437 93.9404 147.49 95.9277Q147.598 97.3779 147.598 97.8076Q147.598 99.0967 147.168 99.6069Q146.738 100.117 144.751 101.245Q133.418 107.529 123.75 111.343Q121.064 112.524 120.313 113.115Q119.023 113.975 118.594 113.975Q117.573 113.975 116.929 112.524Q115.747 109.302 114.297 102.212Q118.755 101.353 123.428 99.7949Q124.609 99.4727 126.167 98.7744L126.167 74.1748L118.379 74.3896Q117.466 74.3897 117.305 74.1211Q117.144 73.9063 117.144 73.0469L117.144 65.5811Q117.144 64.7217 117.358 64.5068Q117.573 64.3457 118.379 64.3457L126.167 64.6143L126.167 42.915L117.144 43.1299Q116.284 43.1299 116.123 42.915Q115.962 42.7002 115.962 41.9482L115.962 34.2139Q115.962 33.3008 116.177 33.0859Q116.392 32.9248 117.144 32.9248L126.382 33.1396L135.889 33.1396L145.02 32.9248Q145.879 32.9248 146.04 33.1396Q146.201 33.4082 146.201 34.2139L146.201 41.9482Q146.201 42.8076 145.986 42.9688Q145.771 43.1299 145.02 43.1299L136.641 42.915L136.641 64.6143L143.784 64.3457ZM138.843 118.057Q156.89 108.872 162.798 92.6514Q165.054 86.6357 165.698 76.8604Q166.128 70.1465 166.128 55.2148L166.128 40.1758Q166.128 32.7637 165.322 27.3926Q170.317 27.5537 176.333 28.0371Q177.998 28.252 177.998 29.4873Q177.998 29.9707 177.354 31.6895Q176.548 33.6231 176.548 40.498Q176.548 70.1465 176.011 77.9883Q175.259 89.1602 172.52 96.7871Q166.45 113.652 149.854 124.824Q147.866 126.167 147.275 126.167Q146.685 126.167 144.858 123.857Q142.012 120.313 138.843 118.057ZM149.048 39.1553Q153.022 39.2627 159.253 39.8535Q160.811 40.0146 160.811 41.1426Q160.811 42.3242 160.112 43.4521Q159.468 44.6338 159.468 51.9385L159.468 74.2822L159.683 86.582Q159.683 87.5488 159.468 87.71Q159.307 87.9248 158.608 87.9248L150.767 87.9248Q149.854 87.9248 149.639 87.6563Q149.478 87.4414 149.478 86.582L149.692 74.2822L149.692 51.8311Q149.692 43.5059 149.048 39.1553ZM275 86.9043L275 91.6309L275.215 113.975Q275.215 118.647 274.409 120.903Q273.604 123.052 271.563 124.556Q269.629 125.952 267.104 126.382Q264.795 126.758 259.692 126.758Q257.114 126.758 256.631 126.274Q256.201 125.845 255.718 123.589Q254.751 118.916 252.764 115.317Q256.309 115.854 260.981 115.854Q263.13 115.854 263.882 114.995Q264.526 114.189 264.526 112.095L264.526 90.5566L262.754 91.0938Q259.961 91.9531 258.94 92.8662Q258.242 93.4033 257.275 93.4033Q256.255 93.4033 255.933 92.0605Q254.697 87.9248 253.623 81.6406Q257.705 81.1572 263.291 79.6533L264.526 79.3311L264.526 58.1152L255.933 58.3301Q255.073 58.3301 254.912 58.1152Q254.751 57.9004 254.751 57.0947L254.751 49.1992Q254.751 48.2861 254.966 48.125Q255.181 47.9639 255.933 47.9639L264.526 48.2324L264.526 42.5928Q264.526 33.6768 263.667 27.0703Q269.575 27.2314 274.57 27.876Q276.45 28.0371 276.45 28.9502Q276.45 29.4336 275.698 31.2598Q275 32.6025 275 42.3779L275 48.2324L282.036 47.9639Q282.896 47.9639 283.11 48.1787Q283.271 48.3936 283.271 49.1992L283.271 57.0947Q283.271 58.0078 283.003 58.1689Q282.842 58.3301 282.036 58.3301L275 58.1152L275 75.9473Q277.148 75.1416 283.594 72.6172Q283.271 76.1084 283.271 80.6738Q283.271 82.876 282.842 83.4131Q282.52 83.8428 280.693 84.5947Q278.76 85.4004 275 86.9043ZM243.311 89.5361L236.812 89.5361L236.812 99.6875Q236.812 100.547 236.597 100.708Q236.382 100.869 235.63 100.869L228.433 100.869Q227.573 100.869 227.412 100.654Q227.251 100.439 227.251 99.6875L227.466 72.9395L227.466 57.793L227.251 36.9531Q227.251 36.0938 227.466 35.9326Q227.681 35.7715 228.486 35.7715L236.597 35.9863L243.311 35.9863L251.421 35.7715Q252.334 35.7715 252.495 35.9863Q252.656 36.2012 252.656 36.9531L252.441 53.8184L252.441 70.0928L252.656 95.1758Q252.656 96.0352 252.441 96.1963Q252.227 96.3574 251.475 96.3574L244.546 96.3574Q243.633 96.3574 243.472 96.1426Q243.311 95.9277 243.311 95.1758L243.311 89.5361ZM243.311 79.0088L243.311 46.46L236.812 46.46L236.812 79.0088L243.311 79.0088ZM309.106 45.7617L311.846 45.7617L323.286 45.5469Q324.146 45.5469 324.307 45.7617Q324.468 45.9766 324.468 46.7822L324.468 55.1611Q324.468 56.0205 324.253 56.1816Q324.038 56.3428 323.286 56.3428L311.846 56.1279L298.096 56.1279L286.655 56.3428Q285.796 56.3428 285.581 56.1279Q285.42 55.9131 285.42 55.1611L285.42 46.7822Q285.42 45.9229 285.688 45.708Q285.85 45.5469 286.655 45.5469L298.096 45.7617L298.311 45.7617L298.311 40.2832Q298.311 34.2139 297.666 27.6611Q304.111 27.8223 308.623 28.4131Q310.288 28.5742 310.288 29.5947Q310.288 30.5615 309.751 31.7969Q309.106 33.4619 309.106 40.1758L309.106 45.7617ZM301.855 113.975Q307.334 90.8252 309.429 73.0469Q310.02 67.9443 310.181 62.7344Q316.465 63.8623 321.191 65.2588Q322.642 65.7959 322.642 66.709Q322.642 67.3535 321.782 68.6963Q320.977 69.6631 320.439 72.7246Q316.626 95.9814 312.168 113.975Q319.204 113.975 322.749 113.867L324.951 113.76Q325.811 113.76 325.972 113.975Q326.133 114.189 326.133 114.995L326.133 123.589Q326.133 124.448 325.918 124.609Q325.703 124.771 324.951 124.771L312.168 124.556L294.229 124.556L281.499 124.771Q280.64 124.771 280.425 124.556Q280.264 124.341 280.264 123.589L280.264 114.995Q280.264 114.136 280.452 113.948Q280.64 113.76 281.499 113.76L294.229 113.975L301.855 113.975ZM301.855 102.212Q301.855 102.373 301.855 102.534Q301.855 103.34 300.728 103.716L292.832 106.294Q292.456 106.401 292.188 106.401Q291.704 106.401 291.597 105.381Q290.361 86.582 286.548 67.085Q286.494 66.8164 286.494 66.6016Q286.494 65.957 287.515 65.5811L295.142 63.2715Q295.518 63.1641 295.732 63.1641Q296.323 63.1641 296.538 64.1309Q300.566 84.1113 301.855 102.212Z" />
        </g>
      </g>
    </g>
  </g>
</svg>