<?xml version="1.0" encoding="utf-8"?>
<svg width="130px" height="20px" viewBox="0 0 130 20" version="1.1" xmlns:xlink="http://www.w3.org/1999/xlink" xmlns="http://www.w3.org/2000/svg">
  <defs>
    <linearGradient gradientUnits="objectBoundingBox" x1="0" y1="0" x2="0" y2="1" id="gradient_1">
      <stop offset="0%" stop-color="#FCFCFC" stop-opacity="0" />
      <stop offset="100%" stop-color="#000000" stop-opacity="0.101960786" />
    </linearGradient>
    <filter id="filter_1">
      <feColorMatrix in="SourceGraphic" type="matrix" values="0 0 0 0 0.98039216 0 0 0 0 0.98039216 0 0 0 0 0.98039216 0 0 0 1 0" color-interpolation-filters="sRGB" />
    </filter>
    <path d="M130 0L130 0L130 20L0 20L0 0L130 0Z" id="path_1" />
    <path d="M14 0L14 0L14 14L0 14L0 0L14 0Z" id="path_2" />
    <clipPath id="clip_1">
      <use xlink:href="#path_1" clip-rule="evenodd" fill-rule="evenodd" />
    </clipPath>
    <clipPath id="clip_2">
      <use xlink:href="#path_2" clip-rule="evenodd" fill-rule="evenodd" />
    </clipPath>
  </defs>
  <g id="熙然-上班摸鱼中" clip-path="url(#clip_1)">
    <path d="M130 0L130 0L130 20L0 20L0 0L130 0Z" id="熙然-上班摸鱼中" fill="none" stroke="none" />
    <g id="Group" transform="translate(0.5 0.5)">
      <path d="M0 4L0 2C0 1.44772 0.195262 0.976311 0.585786 0.585786C0.976311 0.195262 1.44772 0 2 0L58 0C58.5523 0 59.0237 0.195262 59.4142 0.585786C59.8047 0.976311 60 1.44772 60 2L60 17C60 17.5523 59.8047 18.0237 59.4142 18.4142C59.0237 18.8047 58.5523 19 58 19L2 19C1.44772 19 0.976311 18.8047 0.585786 18.4142C0.195262 18.0237 0 17.5523 0 17L0 4Z" id="Line" fill="#FCFCFC" fill-rule="evenodd" stroke="none" />
      <path d="M66 4L66 2C66 1.44772 66.1953 0.976311 66.5858 0.585786C66.9763 0.195262 67.4477 0 68 0L127 0C127.552 0 128.024 0.195262 128.414 0.585786C128.805 0.976311 129 1.44772 129 2L129 17C129 17.5523 128.805 18.0237 128.414 18.4142C128.024 18.8047 127.552 19 127 19L68 19C67.4477 19 66.9763 18.8047 66.5858 18.4142C66.1953 18.0237 66 17.5523 66 17L66 4Z" id="Line" fill="#FAFAFA" fill-rule="evenodd" stroke="#D5D5D5" stroke-width="1" />
      <path d="M65.5 7L66 7L66 12L65.5 12L65.5 7Z" id="Rectangle" fill="#000000" fill-rule="evenodd" stroke="#FAFAFA" stroke-width="1" />
      <g id="Group" transform="translate(62 6)" filter="url(#filter_1)">
        <path d="M4 0L1 3" id="Line" fill="none" fill-rule="evenodd" stroke="#D5D5D5" stroke-width="1" />
        <path d="M1 3L1 5" id="Line" fill="none" fill-rule="evenodd" stroke="#D5D5D5" stroke-width="1" />
        <path d="M1 4L4 7" id="Line" fill="none" fill-rule="evenodd" stroke="#D5D5D5" stroke-width="1" />
      </g>
    </g>
    <g id="Image" clip-path="url(#clip_2)" transform="translate(5 3)">
      <path d="M14 0L14 0L14 14L0 14L0 0L14 0Z" id="Image" fill="#000000" stroke="none" />
      <path d="M7.00583 0.86625C5.79133 0.86625 4.816 0.877917 4.82242 0.893667C4.82825 0.905333 5.81875 2.64425 7.02392 4.75533L9.21725 8.59017L11.4106 8.59017C12.6245 8.59017 13.5998 8.5785 13.5934 8.56275C13.5905 8.55108 12.5971 6.81217 11.3913 4.70108L9.198 0.86625L7.00583 0.86625ZM4.22917 1.87542C3.51773 3.10077 2.81188 4.32941 2.11177 5.56128L0 9.25633L1.1025 11.1802L2.20208 13.1034L4.31375 9.408L6.42425 5.7155L5.32758 3.79808C4.725 2.744 4.23208 1.87833 4.22917 1.87483L4.22917 1.87542ZM5.54692 9.25633L5.4285 9.45933C5.362 9.57483 4.8685 10.4347 4.33183 11.3767C4.00408 11.9554 3.674 12.5328 3.34158 13.1088C3.33575 13.124 5.23158 13.1333 7.55441 13.1333L11.7801 13.1333L12.8277 11.2917C13.4064 10.2802 13.9069 9.40754 13.9396 9.35329L14.0002 9.25587L9.77166 9.25587L5.54692 9.25633Z" id="Shape" fill="#4285F4" fill-rule="evenodd" stroke="none" />
    </g>
    <g id="Group" transform="translate(0.5 0.5)">
      <path d="M0 4L0 2C0 1.44772 0.195262 0.976311 0.585786 0.585786C0.976311 0.195262 1.44772 0 2 0L58 0C58.5523 0 59.0237 0.195262 59.4142 0.585786C59.8047 0.976311 60 1.44772 60 2L60 17C60 17.5523 59.8047 18.0237 59.4142 18.4142C59.0237 18.8047 58.5523 19 58 19L2 19C1.44772 19 0.976311 18.8047 0.585786 18.4142C0.195262 18.0237 0 17.5523 0 17L0 4Z" id="llink" fill="url(#gradient_1)" fill-rule="evenodd" stroke="#D5D5D5" stroke-width="1" />
      <g id="熙然" transform="matrix(0.1 0 0 0.1 27.5 3.84375)">
        <g fill="#FFFFFF" stroke="none" id="熙然">
          <path d="M45.5469 89.6436L56.2354 89.4287Q57.0947 89.4287 57.2559 89.6436Q57.417 89.8584 57.417 90.6104L57.417 97.915Q57.417 98.7207 57.229 98.9087Q57.041 99.0967 56.2354 99.0967L45.5469 98.8818L26.9092 98.8818L12.5146 99.0967Q11.6553 99.0967 11.4941 98.8818Q11.333 98.667 11.333 97.915L11.5479 82.8223L11.5479 48.1787L11.333 33.0322Q11.333 32.1729 11.5479 31.958Q11.7627 31.7969 12.5146 31.7969L26.9092 32.0117L43.0762 32.0117L55.6982 31.7969Q56.6113 31.7969 56.8262 32.0117Q56.9873 32.2266 56.9873 33.0322L56.9873 40.498Q56.9873 41.3574 56.7725 41.5186Q56.5576 41.6797 55.6982 41.6797L44.6338 41.4648L44.6338 51.9385L52.7979 51.6699Q54.0332 51.6699 54.0332 52.7979L53.8184 60.9619L53.8184 69.9316L54.0332 77.9883Q54.0332 78.8477 53.8184 79.0088Q53.6035 79.1699 52.7979 79.1699L44.6338 78.9551L44.6338 89.6436L45.5469 89.6436ZM21.6455 41.4648L21.6455 89.6436L34.8584 89.6436L34.8584 78.9551Q31.7432 79.0088 29.3262 79.1162Q27.7148 79.1699 27.6074 79.1699Q26.6943 79.1699 26.5332 78.9551Q26.3721 78.7402 26.3721 77.9883L26.5869 69.9316L26.5869 60.9619L26.3721 52.7979Q26.3721 51.6699 27.6074 51.6699L34.8584 51.9385L34.8584 41.4648L21.6455 41.4648ZM45.2246 71.3818L45.2246 59.5117L35.1807 59.5117L35.1807 71.3818L45.2246 71.3818ZM80.6201 98.8818Q71.9727 98.8818 68.6963 98.291Q65.6348 97.7539 63.8623 96.25Q61.2305 93.8867 61.2305 86.4746L61.2305 42.8076L61.0156 33.0322Q61.0156 32.1729 61.2305 31.958Q61.4453 31.7969 62.251 31.7969L73.4766 32.0117L86.582 32.0117L97.8613 31.7969Q98.7744 31.7969 98.9355 32.0117Q99.0967 32.2266 99.0967 33.0322L98.8818 42.8076L98.8818 57.417L99.0967 67.085Q99.0967 68.0518 98.8818 68.2666Q98.667 68.4277 97.8613 68.4277L86.582 68.2129L71.5967 68.2129L71.5967 82.0703Q71.5967 86.4746 72.1338 87.4414Q72.7783 88.5156 75.4639 88.7305Q76.9678 88.8916 81.4258 88.8916Q89.1602 88.8916 91.2012 86.4746Q93.5644 83.7891 93.7256 75.4639Q96.7334 77.5049 100.762 78.7939Q102.964 79.4385 103.447 79.7607Q104.038 80.1904 104.038 81.1572Q104.038 81.748 103.823 83.1445Q102.749 90.3418 99.4189 94.2627Q96.9482 97.1631 91.8457 98.1299Q87.9785 98.8818 80.6201 98.8818ZM71.5967 41.4648L71.5967 58.8672L88.7842 58.8672L88.7842 41.4648L71.5967 41.4648ZM19.4971 103.501Q19.9268 102.588 20.4102 102.588Q20.7861 102.588 21.8066 103.071L28.4668 106.294Q29.7559 106.885 29.7559 107.314Q29.7559 107.583 29.4873 108.12Q24.4922 118.594 16.7041 127.08Q16.2207 127.725 15.7373 127.725Q15.3613 127.725 14.3945 126.973L7.78809 121.655Q6.82129 120.85 6.82129 120.366Q6.82129 119.883 7.46582 119.346Q15.0928 112.471 19.4971 103.501ZM90.6641 103.179Q97.1631 110.752 102.964 120.044Q103.394 120.742 103.394 121.064Q103.394 121.602 102.319 122.246L94.9072 126.597Q93.9404 127.295 93.6182 127.295Q93.2422 127.295 92.7051 126.436Q88.0859 117.251 80.7275 107.905Q80.3516 107.476 80.3516 107.207Q80.3516 106.724 81.6406 106.187L88.3545 102.856Q89.0527 102.534 89.4824 102.534Q90.0732 102.534 90.6641 103.179ZM46.2988 105.273Q46.5674 105.273 46.9434 105.273Q47.9639 105.273 48.1787 106.509Q50.0586 115.21 50.3809 124.287Q50.3809 125.737 48.9307 125.845L40.6055 126.597Q40.2832 126.65 40.0146 126.65Q38.833 126.65 38.833 125.2Q38.5107 115.425 37.168 107.261Q37.1143 106.992 37.1143 106.777Q37.1143 105.972 38.833 105.811L46.2988 105.273ZM58.1689 107.261Q58.0078 106.831 58.0078 106.616Q58.0078 106.133 59.5117 105.811L66.8701 104.414Q67.5146 104.253 67.8369 104.253Q68.5352 104.253 68.9648 105.273Q72.1875 112.417 74.2285 122.461Q74.3359 122.944 74.3359 123.159Q74.3359 123.965 72.9395 124.287L64.9902 125.952Q64.2383 126.113 63.916 126.113Q63.2178 126.113 63.0566 125.093Q61.4453 115.532 58.1689 107.261ZM197.549 60.6396L190.728 60.6396Q197.441 78.5791 215.273 87.9785Q212.373 91.7383 210.547 96.0352Q209.419 98.5596 208.667 98.5596Q207.915 98.5596 206.143 97.2168Q190.62 86.3135 184.551 69.2871Q178.75 87.1191 162.476 97.2705Q160.703 98.3447 160.059 98.3447Q159.468 98.3447 157.856 96.25Q155.01 92.4902 151.68 90.4492Q171.23 80.083 176.333 60.6396L174.346 60.6396L160.811 60.8545Q150.229 85.6689 126.382 98.7207Q124.395 99.6875 123.643 99.6875Q122.837 99.6875 121.333 97.2705Q119.023 93.6719 115.801 91.416Q126.543 87.1191 134.976 79.5459Q131.484 75.4639 126.597 71.8115Q125.845 71.3281 125.845 71.0596Q125.845 70.791 126.704 69.9854L131.001 65.6885Q131.753 64.9365 132.129 64.9365Q132.451 64.9365 133.203 65.4199Q137.339 68.0518 141.689 72.6172Q143.516 70.4688 145.61 67.1924Q142.012 63.3252 137.446 60.2637Q136.802 59.8877 136.802 59.5654Q136.802 59.2432 137.5 58.4375L141.528 53.6572Q142.28 52.8516 142.656 52.8516Q142.979 52.8516 143.623 53.2275Q147.598 55.8057 150.552 58.4375Q153.076 52.6904 154.312 48.0713L140.347 48.0713Q134.17 58.8672 125.361 66.5479Q123.428 68.3203 122.622 68.3203Q121.763 68.3203 120.313 66.2256Q118.11 63.0566 115.264 61.0693Q129.551 50.4883 136.05 33.3545Q137.446 30.1318 138.037 26.2109Q143.247 27.0166 147.598 28.3057Q149.263 28.7354 149.263 29.7021Q149.263 30.3467 148.511 31.2598Q147.544 32.1729 146.523 34.8584L144.966 38.6182L156.621 38.6182Q158.179 38.6182 158.608 38.4033Q159.736 37.9736 160.166 37.9736Q161.24 37.9736 163.765 40.3906Q166.987 43.291 166.987 44.4727Q166.987 45.2783 166.182 46.1914Q165.752 46.8359 164.57 50.3809L177.944 50.3809Q178.213 48.0176 178.428 42.8076Q178.428 32.2266 177.837 27.6074Q183.799 27.6074 188.74 28.1445Q190.513 28.5205 190.513 29.3799Q190.513 30.293 189.868 31.3672Q189.17 32.4951 189.17 41.8945Q189.17 44.9023 188.74 50.3809L197.549 50.3809L211.191 50.166Q212.051 50.166 212.212 50.3809Q212.373 50.5957 212.373 51.3477L212.373 59.7266Q212.373 60.8545 211.191 60.8545L197.549 60.6396ZM199.966 99.3652Q208.022 108.818 213.394 119.238Q213.716 119.883 213.716 120.151Q213.716 120.635 212.48 121.333L205.552 125.63Q204.639 126.113 204.209 126.113Q203.726 126.113 203.35 125.254Q198.892 115.264 190.835 104.092Q190.405 103.501 190.405 103.232Q190.405 102.749 191.587 102.212L197.764 99.0967Q198.623 98.7207 198.999 98.7207Q199.429 98.7207 199.966 99.3652ZM130.356 100.762Q130.679 99.8486 131.108 99.8486Q131.484 99.8486 132.559 100.332L138.574 103.286Q139.702 103.823 139.702 104.36Q139.702 104.683 139.487 105.273Q134.17 117.734 126.597 126.113Q125.952 126.758 125.63 126.758Q125.308 126.758 124.287 126.06L117.788 121.226Q116.606 120.313 116.606 119.937Q116.606 119.668 117.144 119.131Q125.522 111.235 130.356 100.762ZM148.94 102.642L155.869 102.104Q156.514 102.051 156.675 102.051Q157.534 102.051 157.856 103.179Q159.521 110.107 160.596 123.857Q160.596 125.361 158.823 125.522L151.035 125.952Q150.552 126.006 150.229 126.006Q149.155 126.006 149.155 124.878Q149.155 113.545 147.383 104.092Q147.329 103.77 147.329 103.555Q147.329 102.749 148.94 102.642ZM179.072 102.212Q182.617 110.322 185.249 122.246Q185.356 122.729 185.356 122.998Q185.356 123.75 183.906 124.072L175.957 125.845Q175.098 126.06 174.775 126.06Q174.185 126.06 173.97 124.932Q172.09 112.847 169.136 104.629Q168.921 104.092 168.921 103.877Q168.921 103.286 170.371 102.964L176.978 101.406Q177.676 101.245 178.052 101.245Q178.643 101.245 179.072 102.212ZM201.416 31.1523Q205.82 36.2549 209.634 42.3779Q210.01 42.9688 210.01 43.291Q210.01 43.7744 208.989 44.4727L203.618 47.749Q202.598 48.3936 202.383 48.3936Q202.007 48.3936 201.47 47.4268Q198.301 41.3037 193.574 35.6641Q193.037 34.9658 193.037 34.6436Q193.037 34.2139 194.111 33.6768L199.321 30.9375Q200.127 30.5078 200.503 30.5078Q200.933 30.5078 201.416 31.1523Z" />
        </g>
      </g>
      <g id="熙然" transform="matrix(0.1 0 0 0.1 27.5 2.84375)">
        <g fill="#333333" stroke="none" id="熙然">
          <path d="M45.5469 89.6436L56.2354 89.4287Q57.0947 89.4287 57.2559 89.6436Q57.417 89.8584 57.417 90.6104L57.417 97.915Q57.417 98.7207 57.229 98.9087Q57.041 99.0967 56.2354 99.0967L45.5469 98.8818L26.9092 98.8818L12.5146 99.0967Q11.6553 99.0967 11.4941 98.8818Q11.333 98.667 11.333 97.915L11.5479 82.8223L11.5479 48.1787L11.333 33.0322Q11.333 32.1729 11.5479 31.958Q11.7627 31.7969 12.5146 31.7969L26.9092 32.0117L43.0762 32.0117L55.6982 31.7969Q56.6113 31.7969 56.8262 32.0117Q56.9873 32.2266 56.9873 33.0322L56.9873 40.498Q56.9873 41.3574 56.7725 41.5186Q56.5576 41.6797 55.6982 41.6797L44.6338 41.4648L44.6338 51.9385L52.7979 51.6699Q54.0332 51.6699 54.0332 52.7979L53.8184 60.9619L53.8184 69.9316L54.0332 77.9883Q54.0332 78.8477 53.8184 79.0088Q53.6035 79.1699 52.7979 79.1699L44.6338 78.9551L44.6338 89.6436L45.5469 89.6436ZM21.6455 41.4648L21.6455 89.6436L34.8584 89.6436L34.8584 78.9551Q31.7432 79.0088 29.3262 79.1162Q27.7148 79.1699 27.6074 79.1699Q26.6943 79.1699 26.5332 78.9551Q26.3721 78.7402 26.3721 77.9883L26.5869 69.9316L26.5869 60.9619L26.3721 52.7979Q26.3721 51.6699 27.6074 51.6699L34.8584 51.9385L34.8584 41.4648L21.6455 41.4648ZM45.2246 71.3818L45.2246 59.5117L35.1807 59.5117L35.1807 71.3818L45.2246 71.3818ZM80.6201 98.8818Q71.9727 98.8818 68.6963 98.291Q65.6348 97.7539 63.8623 96.25Q61.2305 93.8867 61.2305 86.4746L61.2305 42.8076L61.0156 33.0322Q61.0156 32.1729 61.2305 31.958Q61.4453 31.7969 62.251 31.7969L73.4766 32.0117L86.582 32.0117L97.8613 31.7969Q98.7744 31.7969 98.9355 32.0117Q99.0967 32.2266 99.0967 33.0322L98.8818 42.8076L98.8818 57.417L99.0967 67.085Q99.0967 68.0518 98.8818 68.2666Q98.667 68.4277 97.8613 68.4277L86.582 68.2129L71.5967 68.2129L71.5967 82.0703Q71.5967 86.4746 72.1338 87.4414Q72.7783 88.5156 75.4639 88.7305Q76.9678 88.8916 81.4258 88.8916Q89.1602 88.8916 91.2012 86.4746Q93.5644 83.7891 93.7256 75.4639Q96.7334 77.5049 100.762 78.7939Q102.964 79.4385 103.447 79.7607Q104.038 80.1904 104.038 81.1572Q104.038 81.748 103.823 83.1445Q102.749 90.3418 99.4189 94.2627Q96.9482 97.1631 91.8457 98.1299Q87.9785 98.8818 80.6201 98.8818ZM71.5967 41.4648L71.5967 58.8672L88.7842 58.8672L88.7842 41.4648L71.5967 41.4648ZM19.4971 103.501Q19.9268 102.588 20.4102 102.588Q20.7861 102.588 21.8066 103.071L28.4668 106.294Q29.7559 106.885 29.7559 107.314Q29.7559 107.583 29.4873 108.12Q24.4922 118.594 16.7041 127.08Q16.2207 127.725 15.7373 127.725Q15.3613 127.725 14.3945 126.973L7.78809 121.655Q6.82129 120.85 6.82129 120.366Q6.82129 119.883 7.46582 119.346Q15.0928 112.471 19.4971 103.501ZM90.6641 103.179Q97.1631 110.752 102.964 120.044Q103.394 120.742 103.394 121.064Q103.394 121.602 102.319 122.246L94.9072 126.597Q93.9404 127.295 93.6182 127.295Q93.2422 127.295 92.7051 126.436Q88.0859 117.251 80.7275 107.905Q80.3516 107.476 80.3516 107.207Q80.3516 106.724 81.6406 106.187L88.3545 102.856Q89.0527 102.534 89.4824 102.534Q90.0732 102.534 90.6641 103.179ZM46.2988 105.273Q46.5674 105.273 46.9434 105.273Q47.9639 105.273 48.1787 106.509Q50.0586 115.21 50.3809 124.287Q50.3809 125.737 48.9307 125.845L40.6055 126.597Q40.2832 126.65 40.0146 126.65Q38.833 126.65 38.833 125.2Q38.5107 115.425 37.168 107.261Q37.1143 106.992 37.1143 106.777Q37.1143 105.972 38.833 105.811L46.2988 105.273ZM58.1689 107.261Q58.0078 106.831 58.0078 106.616Q58.0078 106.133 59.5117 105.811L66.8701 104.414Q67.5146 104.253 67.8369 104.253Q68.5352 104.253 68.9648 105.273Q72.1875 112.417 74.2285 122.461Q74.3359 122.944 74.3359 123.159Q74.3359 123.965 72.9395 124.287L64.9902 125.952Q64.2383 126.113 63.916 126.113Q63.2178 126.113 63.0566 125.093Q61.4453 115.532 58.1689 107.261ZM197.549 60.6396L190.728 60.6396Q197.441 78.5791 215.273 87.9785Q212.373 91.7383 210.547 96.0352Q209.419 98.5596 208.667 98.5596Q207.915 98.5596 206.143 97.2168Q190.62 86.3135 184.551 69.2871Q178.75 87.1191 162.476 97.2705Q160.703 98.3447 160.059 98.3447Q159.468 98.3447 157.856 96.25Q155.01 92.4902 151.68 90.4492Q171.23 80.083 176.333 60.6396L174.346 60.6396L160.811 60.8545Q150.229 85.6689 126.382 98.7207Q124.395 99.6875 123.643 99.6875Q122.837 99.6875 121.333 97.2705Q119.023 93.6719 115.801 91.416Q126.543 87.1191 134.976 79.5459Q131.484 75.4639 126.597 71.8115Q125.845 71.3281 125.845 71.0596Q125.845 70.791 126.704 69.9854L131.001 65.6885Q131.753 64.9365 132.129 64.9365Q132.451 64.9365 133.203 65.4199Q137.339 68.0518 141.689 72.6172Q143.516 70.4688 145.61 67.1924Q142.012 63.3252 137.446 60.2637Q136.802 59.8877 136.802 59.5654Q136.802 59.2432 137.5 58.4375L141.528 53.6572Q142.28 52.8516 142.656 52.8516Q142.979 52.8516 143.623 53.2275Q147.598 55.8057 150.552 58.4375Q153.076 52.6904 154.312 48.0713L140.347 48.0713Q134.17 58.8672 125.361 66.5479Q123.428 68.3203 122.622 68.3203Q121.763 68.3203 120.313 66.2256Q118.11 63.0566 115.264 61.0693Q129.551 50.4883 136.05 33.3545Q137.446 30.1318 138.037 26.2109Q143.247 27.0166 147.598 28.3057Q149.263 28.7354 149.263 29.7021Q149.263 30.3467 148.511 31.2598Q147.544 32.1729 146.523 34.8584L144.966 38.6182L156.621 38.6182Q158.179 38.6182 158.608 38.4033Q159.736 37.9736 160.166 37.9736Q161.24 37.9736 163.765 40.3906Q166.987 43.291 166.987 44.4727Q166.987 45.2783 166.182 46.1914Q165.752 46.8359 164.57 50.3809L177.944 50.3809Q178.213 48.0176 178.428 42.8076Q178.428 32.2266 177.837 27.6074Q183.799 27.6074 188.74 28.1445Q190.513 28.5205 190.513 29.3799Q190.513 30.293 189.868 31.3672Q189.17 32.4951 189.17 41.8945Q189.17 44.9023 188.74 50.3809L197.549 50.3809L211.191 50.166Q212.051 50.166 212.212 50.3809Q212.373 50.5957 212.373 51.3477L212.373 59.7266Q212.373 60.8545 211.191 60.8545L197.549 60.6396ZM199.966 99.3652Q208.022 108.818 213.394 119.238Q213.716 119.883 213.716 120.151Q213.716 120.635 212.48 121.333L205.552 125.63Q204.639 126.113 204.209 126.113Q203.726 126.113 203.35 125.254Q198.892 115.264 190.835 104.092Q190.405 103.501 190.405 103.232Q190.405 102.749 191.587 102.212L197.764 99.0967Q198.623 98.7207 198.999 98.7207Q199.429 98.7207 199.966 99.3652ZM130.356 100.762Q130.679 99.8486 131.108 99.8486Q131.484 99.8486 132.559 100.332L138.574 103.286Q139.702 103.823 139.702 104.36Q139.702 104.683 139.487 105.273Q134.17 117.734 126.597 126.113Q125.952 126.758 125.63 126.758Q125.308 126.758 124.287 126.06L117.788 121.226Q116.606 120.313 116.606 119.937Q116.606 119.668 117.144 119.131Q125.522 111.235 130.356 100.762ZM148.94 102.642L155.869 102.104Q156.514 102.051 156.675 102.051Q157.534 102.051 157.856 103.179Q159.521 110.107 160.596 123.857Q160.596 125.361 158.823 125.522L151.035 125.952Q150.552 126.006 150.229 126.006Q149.155 126.006 149.155 124.878Q149.155 113.545 147.383 104.092Q147.329 103.77 147.329 103.555Q147.329 102.749 148.94 102.642ZM179.072 102.212Q182.617 110.322 185.249 122.246Q185.356 122.729 185.356 122.998Q185.356 123.75 183.906 124.072L175.957 125.845Q175.098 126.06 174.775 126.06Q174.185 126.06 173.97 124.932Q172.09 112.847 169.136 104.629Q168.921 104.092 168.921 103.877Q168.921 103.286 170.371 102.964L176.978 101.406Q177.676 101.245 178.052 101.245Q178.643 101.245 179.072 102.212ZM201.416 31.1523Q205.82 36.2549 209.634 42.3779Q210.01 42.9688 210.01 43.291Q210.01 43.7744 208.989 44.4727L203.618 47.749Q202.598 48.3936 202.383 48.3936Q202.007 48.3936 201.47 47.4268Q198.301 41.3037 193.574 35.6641Q193.037 34.9658 193.037 34.6436Q193.037 34.2139 194.111 33.6768L199.321 30.9375Q200.127 30.5078 200.503 30.5078Q200.933 30.5078 201.416 31.1523Z" />
        </g>
      </g>
      <g id="Text" transform="matrix(0.1 0 0 0.1 69.5 3.84375)">
        <g fill="#FFFFFF" stroke="none" id="上班摸-鱼中">
          <path d="M22.3975 121.226L8.43262 121.44Q7.51953 121.44 7.3584 121.226Q7.19727 121.011 7.19727 120.259L7.19727 110.215Q7.19727 109.355 7.41211 109.194Q7.62695 109.033 8.43262 109.033L22.3975 109.248L45.6006 109.248L45.6006 47.2119Q45.6006 34.4824 44.6875 28.8428Q52.8516 29.0576 57.5781 29.5947Q59.5654 29.8096 59.5654 31.0449Q59.5654 31.5283 58.7598 33.5693Q58.0078 35.6641 58.0078 44.0967L58.0078 61.499L79.5459 61.499L93.0811 61.2842Q93.9404 61.2842 94.1553 61.499Q94.3164 61.7139 94.3164 62.4658L94.3164 72.5098Q94.3164 73.3691 94.0479 73.5303Q93.8867 73.6914 93.0811 73.6914L79.5459 73.4766L58.0078 73.4766L58.0078 109.248L88.0322 109.248L101.997 109.033Q102.856 109.033 103.018 109.248Q103.179 109.463 103.179 110.215L103.179 120.259Q103.179 121.064 102.991 121.252Q102.803 121.44 101.997 121.44L88.0322 121.226L22.3975 121.226ZM202.383 123.32L186.431 123.32L174.346 123.535Q173.486 123.535 173.271 123.32Q173.11 123.105 173.11 122.354L173.11 113.652Q173.11 112.793 173.298 112.605Q173.486 112.417 174.346 112.417L186.431 112.632L190.62 112.632L190.62 80.6201L181.489 80.8887Q180.415 80.8887 180.415 79.6533L180.415 71.3818Q180.415 70.2002 181.489 70.2002L190.62 70.415L190.62 43.1299L181.274 43.3447Q180.415 43.3447 180.2 43.1299Q180.039 42.915 180.039 42.1631L180.039 33.7842Q180.039 32.9248 180.308 32.7637Q180.469 32.6025 181.274 32.6025L191.05 32.8174L202.275 32.8174L212.104 32.6025Q212.964 32.6025 213.125 32.8174Q213.286 33.0322 213.286 33.7842L213.286 42.1631Q213.286 43.0225 213.071 43.1836Q212.856 43.3447 212.104 43.3447L202.275 43.1299L201.738 43.1299L201.738 70.415L210.869 70.2002Q211.836 70.2002 211.997 70.415Q212.212 70.6299 212.212 71.3818L212.212 79.6533Q212.212 80.5127 211.997 80.7007Q211.782 80.8887 210.869 80.8887L201.738 80.6201L201.738 112.632L202.383 112.632L214.253 112.417Q215.22 112.417 215.435 112.632Q215.596 112.847 215.596 113.652L215.596 122.354Q215.596 123.213 215.381 123.374Q215.112 123.535 214.253 123.535L202.383 123.32ZM143.784 64.3457Q144.644 64.3457 144.858 64.5605Q145.02 64.7754 145.02 65.5811L145.02 73.0469Q145.02 74.0137 144.751 74.2285Q144.59 74.3897 143.784 74.3896Q143.677 74.3897 141.582 74.3359Q139.326 74.2285 136.641 74.1748L136.641 94.4238Q143.247 91.2012 147.544 88.6768Q147.437 90.5566 147.437 92.2217Q147.437 93.9404 147.49 95.9277Q147.598 97.3779 147.598 97.8076Q147.598 99.0967 147.168 99.6069Q146.738 100.117 144.751 101.245Q133.418 107.529 123.75 111.343Q121.064 112.524 120.313 113.115Q119.023 113.975 118.594 113.975Q117.573 113.975 116.929 112.524Q115.747 109.302 114.297 102.212Q118.755 101.353 123.428 99.7949Q124.609 99.4727 126.167 98.7744L126.167 74.1748L118.379 74.3896Q117.466 74.3897 117.305 74.1211Q117.144 73.9063 117.144 73.0469L117.144 65.5811Q117.144 64.7217 117.358 64.5068Q117.573 64.3457 118.379 64.3457L126.167 64.6143L126.167 42.915L117.144 43.1299Q116.284 43.1299 116.123 42.915Q115.962 42.7002 115.962 41.9482L115.962 34.2139Q115.962 33.3008 116.177 33.0859Q116.392 32.9248 117.144 32.9248L126.382 33.1396L135.889 33.1396L145.02 32.9248Q145.879 32.9248 146.04 33.1396Q146.201 33.4082 146.201 34.2139L146.201 41.9482Q146.201 42.8076 145.986 42.9688Q145.771 43.1299 145.02 43.1299L136.641 42.915L136.641 64.6143L143.784 64.3457ZM138.843 118.057Q156.89 108.872 162.798 92.6514Q165.054 86.6357 165.698 76.8604Q166.128 70.1465 166.128 55.2148L166.128 40.1758Q166.128 32.7637 165.322 27.3926Q170.317 27.5537 176.333 28.0371Q177.998 28.252 177.998 29.4873Q177.998 29.9707 177.354 31.6895Q176.548 33.6231 176.548 40.498Q176.548 70.1465 176.011 77.9883Q175.259 89.1602 172.52 96.7871Q166.45 113.652 149.854 124.824Q147.866 126.167 147.275 126.167Q146.685 126.167 144.858 123.857Q142.012 120.313 138.843 118.057ZM149.048 39.1553Q153.022 39.2627 159.253 39.8535Q160.811 40.0146 160.811 41.1426Q160.811 42.3242 160.112 43.4521Q159.468 44.6338 159.468 51.9385L159.468 74.2822L159.683 86.582Q159.683 87.5488 159.468 87.71Q159.307 87.9248 158.608 87.9248L150.767 87.9248Q149.854 87.9248 149.639 87.6563Q149.478 87.4414 149.478 86.582L149.692 74.2822L149.692 51.8311Q149.692 43.5059 149.048 39.1553ZM250.938 118.379Q263.774 116.284 270.703 112.363Q277.041 108.765 280.103 102.749L271.509 102.749L256.792 102.964Q255.933 102.964 255.718 102.749Q255.557 102.534 255.557 101.782L255.557 94.585Q255.557 93.5107 256.792 93.5107L271.509 93.7256L282.949 93.7256Q283.271 92.0068 283.486 88.2471L278.33 88.2471L264.58 88.4619Q263.721 88.4619 263.56 88.2471Q263.398 88.0322 263.398 87.2266L263.613 77.666L263.613 63.5938L263.398 53.9258Q263.398 53.0127 263.613 52.8516Q263.828 52.6904 264.58 52.6904L278.33 52.9053L301.641 52.9053L315.283 52.6904Q316.143 52.6904 316.357 52.9053Q316.519 53.1201 316.519 53.9258L316.304 63.5938L316.304 77.666L316.519 87.2266Q316.519 88.0859 316.331 88.2739Q316.143 88.4619 315.283 88.4619L301.641 88.2471L294.175 88.2471Q293.96 91.8457 293.638 93.7256L308.462 93.7256L323.447 93.5107Q324.253 93.5107 324.414 93.7256Q324.521 93.8867 324.521 94.585L324.521 101.782Q324.521 102.642 324.387 102.803Q324.253 102.964 323.447 102.964L308.462 102.749L295.947 102.749Q304.111 113.491 326.401 116.284C325.148 118.039 324.02 120.653 323.018 124.126Q322.212 126.973 321.245 126.973Q320.278 126.973 318.398 126.543Q298.901 122.246 288.804 109.033Q281.123 122.3 260.391 127.08Q258.188 127.51 257.866 127.51Q256.792 127.51 255.557 124.878Q254.053 121.655 250.938 118.379ZM306.045 79.9756L306.045 74.0137L273.711 74.0137L273.711 79.9756L306.045 79.9756ZM306.045 61.0693L273.711 61.0693L273.711 66.6553L306.045 66.6553L306.045 61.0693ZM226.338 115.21Q228.97 115.532 234.019 115.532Q237.886 115.532 237.886 111.343L237.886 89.8047L233.589 91.2012Q231.816 91.792 229.722 93.1885Q228.916 93.833 227.949 93.833Q226.821 93.833 226.553 92.4902Q225.264 86.958 224.673 81.9629Q229.131 81.3721 234.663 79.7607L237.886 78.9014L237.886 57.9004L236.436 57.9004L226.445 58.1152Q225.586 58.1152 225.371 57.8467Q225.21 57.6318 225.21 56.7725L225.21 48.877Q225.21 47.9639 225.425 47.8027Q225.64 47.6416 226.445 47.6416L236.436 47.8564L237.886 47.8564L237.886 42.3779Q237.886 33.7842 237.08 26.8555Q243.257 27.0166 248.359 27.6611Q250.132 27.8223 250.132 28.7354Q250.132 29.2725 249.326 31.0449Q248.682 32.3877 248.682 42.1631L248.682 47.8564L256.255 47.6416Q257.114 47.6416 257.329 47.8564Q257.49 48.0713 257.49 48.877L257.49 56.7725Q257.49 57.7393 257.222 57.9541Q257.061 58.1152 256.255 58.1152Q256.201 58.1152 253.945 58.0615Q251.582 57.9541 248.682 57.9004L248.682 75.1416Q253.999 73.208 258.672 71.0596Q258.35 74.2285 258.35 78.1494Q258.35 80.9961 257.866 81.6406Q257.383 82.2314 255.073 83.1982Q251.743 84.6484 248.682 85.8301L248.682 91.2012L249.004 113.115Q249.004 121.44 245.566 124.072Q242.236 126.382 233.267 126.382Q232.192 126.436 231.924 126.436Q230.313 126.436 229.829 125.791Q229.507 125.308 228.97 123.213Q227.949 118.218 226.338 115.21ZM272.368 26.748Q278.76 26.9629 282.734 27.3926Q284.185 27.5537 284.185 28.4131L283.594 30.0244Q283.057 31.4209 283.057 34.9121L283.057 35.8789L296.699 35.8789L296.699 35.6641Q296.699 29.7021 296.055 26.748Q302.07 26.9092 306.367 27.3926Q307.817 27.5537 307.817 28.4131Q307.817 29.0039 307.28 29.917Q306.689 31.582 306.689 34.8047L306.689 35.8789L307.119 35.8789L323.071 35.6641Q323.984 35.6641 324.146 35.8789Q324.307 36.0938 324.307 36.8457L324.307 43.7207Q324.307 44.5801 324.092 44.7412Q323.877 44.9023 323.071 44.9023L307.119 44.6875L306.689 44.6875L306.958 49.5215Q306.958 50.3809 306.689 50.5957Q306.528 50.7568 305.723 50.7568L297.666 50.7568Q296.807 50.7568 296.646 50.4883Q296.484 50.3271 296.484 49.5215Q296.484 49.3066 296.538 47.8564Q296.646 46.2451 296.699 44.6875L283.057 44.6875L283.325 49.5215Q283.325 50.3271 283.057 50.4883Q282.842 50.6494 282.09 50.6494L274.033 50.6494Q272.852 50.6494 272.852 49.5215Q272.852 49.3066 272.905 47.8027Q273.013 46.1914 273.066 44.6875L272.798 44.6875L257.974 44.9023Q257.114 44.9023 256.899 44.6875Q256.738 44.4727 256.738 43.7207L256.738 36.8457Q256.738 35.9863 257.007 35.8252Q257.168 35.6641 257.974 35.6641L272.798 35.8789L273.066 35.8789L273.066 35.6641Q273.066 29.8096 272.368 26.748Z" />
        </g>
        <g transform="translate(330, 0)" fill="#FFFFFF" stroke="none" id="上班摸-鱼中">
          <path d="M93.1885 97.4316L17.4023 97.4316L17.4023 58.4912L11.8701 62.4121L6.17676 54.4092Q29.0576 39.585 41.0352 20.4102L49.7363 24.2773Q49.0381 25.7275 46.8359 29.0039L79.2236 29.0039L79.2236 37.9199Q75.4639 42.915 70.5225 48.5547L93.1885 48.5547L93.1885 97.4316ZM66.2256 37.9199L39.9072 37.9199Q34.4824 44.0967 29.7021 48.5547L57.2021 48.5547Q62.251 43.667 66.2256 37.9199ZM83.3594 68.1592L83.3594 57.4707L60.2637 57.4707L60.2637 68.1592L83.3594 68.1592ZM50.4883 68.1592L50.4883 57.4707L27.1777 57.4707L27.1777 68.1592L50.4883 68.1592ZM83.3594 88.5156L83.3594 77.1826L60.2637 77.1826L60.2637 88.5156L83.3594 88.5156ZM50.4883 88.5156L50.4883 77.1826L27.1777 77.1826L27.1777 88.5156L50.4883 88.5156ZM103.179 114.78L7.25098 114.78L7.25098 105.649L103.179 105.649L103.179 114.78ZM208.13 85.4541L170.371 85.4541L170.371 117.197L160.273 117.197L160.273 85.4541L122.676 85.4541L122.676 38.9941L160.273 38.9941L160.273 21.3232L170.371 21.3232L170.371 38.9941L208.13 38.9941L208.13 85.4541ZM197.979 75.7324L197.979 48.6621L170.371 48.6621L170.371 75.7324L197.979 75.7324ZM160.273 75.7324L160.273 48.6621L132.881 48.6621L132.881 75.7324L160.273 75.7324Z" />
        </g>
      </g>
      <g id="rlink" transform="matrix(0.1 0 0 0.1 69.5 2.84375)">
        <g fill="#333333" stroke="none" id="上班摸-鱼中">
          <path d="M22.3975 121.226L8.43262 121.44Q7.51953 121.44 7.3584 121.226Q7.19727 121.011 7.19727 120.259L7.19727 110.215Q7.19727 109.355 7.41211 109.194Q7.62695 109.033 8.43262 109.033L22.3975 109.248L45.6006 109.248L45.6006 47.2119Q45.6006 34.4824 44.6875 28.8428Q52.8516 29.0576 57.5781 29.5947Q59.5654 29.8096 59.5654 31.0449Q59.5654 31.5283 58.7598 33.5693Q58.0078 35.6641 58.0078 44.0967L58.0078 61.499L79.5459 61.499L93.0811 61.2842Q93.9404 61.2842 94.1553 61.499Q94.3164 61.7139 94.3164 62.4658L94.3164 72.5098Q94.3164 73.3691 94.0479 73.5303Q93.8867 73.6914 93.0811 73.6914L79.5459 73.4766L58.0078 73.4766L58.0078 109.248L88.0322 109.248L101.997 109.033Q102.856 109.033 103.018 109.248Q103.179 109.463 103.179 110.215L103.179 120.259Q103.179 121.064 102.991 121.252Q102.803 121.44 101.997 121.44L88.0322 121.226L22.3975 121.226ZM202.383 123.32L186.431 123.32L174.346 123.535Q173.486 123.535 173.271 123.32Q173.11 123.105 173.11 122.354L173.11 113.652Q173.11 112.793 173.298 112.605Q173.486 112.417 174.346 112.417L186.431 112.632L190.62 112.632L190.62 80.6201L181.489 80.8887Q180.415 80.8887 180.415 79.6533L180.415 71.3818Q180.415 70.2002 181.489 70.2002L190.62 70.415L190.62 43.1299L181.274 43.3447Q180.415 43.3447 180.2 43.1299Q180.039 42.915 180.039 42.1631L180.039 33.7842Q180.039 32.9248 180.308 32.7637Q180.469 32.6025 181.274 32.6025L191.05 32.8174L202.275 32.8174L212.104 32.6025Q212.964 32.6025 213.125 32.8174Q213.286 33.0322 213.286 33.7842L213.286 42.1631Q213.286 43.0225 213.071 43.1836Q212.856 43.3447 212.104 43.3447L202.275 43.1299L201.738 43.1299L201.738 70.415L210.869 70.2002Q211.836 70.2002 211.997 70.415Q212.212 70.6299 212.212 71.3818L212.212 79.6533Q212.212 80.5127 211.997 80.7007Q211.782 80.8887 210.869 80.8887L201.738 80.6201L201.738 112.632L202.383 112.632L214.253 112.417Q215.22 112.417 215.435 112.632Q215.596 112.847 215.596 113.652L215.596 122.354Q215.596 123.213 215.381 123.374Q215.112 123.535 214.253 123.535L202.383 123.32ZM143.784 64.3457Q144.644 64.3457 144.858 64.5605Q145.02 64.7754 145.02 65.5811L145.02 73.0469Q145.02 74.0137 144.751 74.2285Q144.59 74.3897 143.784 74.3896Q143.677 74.3897 141.582 74.3359Q139.326 74.2285 136.641 74.1748L136.641 94.4238Q143.247 91.2012 147.544 88.6768Q147.437 90.5566 147.437 92.2217Q147.437 93.9404 147.49 95.9277Q147.598 97.3779 147.598 97.8076Q147.598 99.0967 147.168 99.6069Q146.738 100.117 144.751 101.245Q133.418 107.529 123.75 111.343Q121.064 112.524 120.313 113.115Q119.023 113.975 118.594 113.975Q117.573 113.975 116.929 112.524Q115.747 109.302 114.297 102.212Q118.755 101.353 123.428 99.7949Q124.609 99.4727 126.167 98.7744L126.167 74.1748L118.379 74.3896Q117.466 74.3897 117.305 74.1211Q117.144 73.9063 117.144 73.0469L117.144 65.5811Q117.144 64.7217 117.358 64.5068Q117.573 64.3457 118.379 64.3457L126.167 64.6143L126.167 42.915L117.144 43.1299Q116.284 43.1299 116.123 42.915Q115.962 42.7002 115.962 41.9482L115.962 34.2139Q115.962 33.3008 116.177 33.0859Q116.392 32.9248 117.144 32.9248L126.382 33.1396L135.889 33.1396L145.02 32.9248Q145.879 32.9248 146.04 33.1396Q146.201 33.4082 146.201 34.2139L146.201 41.9482Q146.201 42.8076 145.986 42.9688Q145.771 43.1299 145.02 43.1299L136.641 42.915L136.641 64.6143L143.784 64.3457ZM138.843 118.057Q156.89 108.872 162.798 92.6514Q165.054 86.6357 165.698 76.8604Q166.128 70.1465 166.128 55.2148L166.128 40.1758Q166.128 32.7637 165.322 27.3926Q170.317 27.5537 176.333 28.0371Q177.998 28.252 177.998 29.4873Q177.998 29.9707 177.354 31.6895Q176.548 33.6231 176.548 40.498Q176.548 70.1465 176.011 77.9883Q175.259 89.1602 172.52 96.7871Q166.45 113.652 149.854 124.824Q147.866 126.167 147.275 126.167Q146.685 126.167 144.858 123.857Q142.012 120.313 138.843 118.057ZM149.048 39.1553Q153.022 39.2627 159.253 39.8535Q160.811 40.0146 160.811 41.1426Q160.811 42.3242 160.112 43.4521Q159.468 44.6338 159.468 51.9385L159.468 74.2822L159.683 86.582Q159.683 87.5488 159.468 87.71Q159.307 87.9248 158.608 87.9248L150.767 87.9248Q149.854 87.9248 149.639 87.6563Q149.478 87.4414 149.478 86.582L149.692 74.2822L149.692 51.8311Q149.692 43.5059 149.048 39.1553ZM250.938 118.379Q263.774 116.284 270.703 112.363Q277.041 108.765 280.103 102.749L271.509 102.749L256.792 102.964Q255.933 102.964 255.718 102.749Q255.557 102.534 255.557 101.782L255.557 94.585Q255.557 93.5107 256.792 93.5107L271.509 93.7256L282.949 93.7256Q283.271 92.0068 283.486 88.2471L278.33 88.2471L264.58 88.4619Q263.721 88.4619 263.56 88.2471Q263.398 88.0322 263.398 87.2266L263.613 77.666L263.613 63.5938L263.398 53.9258Q263.398 53.0127 263.613 52.8516Q263.828 52.6904 264.58 52.6904L278.33 52.9053L301.641 52.9053L315.283 52.6904Q316.143 52.6904 316.357 52.9053Q316.519 53.1201 316.519 53.9258L316.304 63.5938L316.304 77.666L316.519 87.2266Q316.519 88.0859 316.331 88.2739Q316.143 88.4619 315.283 88.4619L301.641 88.2471L294.175 88.2471Q293.96 91.8457 293.638 93.7256L308.462 93.7256L323.447 93.5107Q324.253 93.5107 324.414 93.7256Q324.521 93.8867 324.521 94.585L324.521 101.782Q324.521 102.642 324.387 102.803Q324.253 102.964 323.447 102.964L308.462 102.749L295.947 102.749Q304.111 113.491 326.401 116.284C325.148 118.039 324.02 120.653 323.018 124.126Q322.212 126.973 321.245 126.973Q320.278 126.973 318.398 126.543Q298.901 122.246 288.804 109.033Q281.123 122.3 260.391 127.08Q258.188 127.51 257.866 127.51Q256.792 127.51 255.557 124.878Q254.053 121.655 250.938 118.379ZM306.045 79.9756L306.045 74.0137L273.711 74.0137L273.711 79.9756L306.045 79.9756ZM306.045 61.0693L273.711 61.0693L273.711 66.6553L306.045 66.6553L306.045 61.0693ZM226.338 115.21Q228.97 115.532 234.019 115.532Q237.886 115.532 237.886 111.343L237.886 89.8047L233.589 91.2012Q231.816 91.792 229.722 93.1885Q228.916 93.833 227.949 93.833Q226.821 93.833 226.553 92.4902Q225.264 86.958 224.673 81.9629Q229.131 81.3721 234.663 79.7607L237.886 78.9014L237.886 57.9004L236.436 57.9004L226.445 58.1152Q225.586 58.1152 225.371 57.8467Q225.21 57.6318 225.21 56.7725L225.21 48.877Q225.21 47.9639 225.425 47.8027Q225.64 47.6416 226.445 47.6416L236.436 47.8564L237.886 47.8564L237.886 42.3779Q237.886 33.7842 237.08 26.8555Q243.257 27.0166 248.359 27.6611Q250.132 27.8223 250.132 28.7354Q250.132 29.2725 249.326 31.0449Q248.682 32.3877 248.682 42.1631L248.682 47.8564L256.255 47.6416Q257.114 47.6416 257.329 47.8564Q257.49 48.0713 257.49 48.877L257.49 56.7725Q257.49 57.7393 257.222 57.9541Q257.061 58.1152 256.255 58.1152Q256.201 58.1152 253.945 58.0615Q251.582 57.9541 248.682 57.9004L248.682 75.1416Q253.999 73.208 258.672 71.0596Q258.35 74.2285 258.35 78.1494Q258.35 80.9961 257.866 81.6406Q257.383 82.2314 255.073 83.1982Q251.743 84.6484 248.682 85.8301L248.682 91.2012L249.004 113.115Q249.004 121.44 245.566 124.072Q242.236 126.382 233.267 126.382Q232.192 126.436 231.924 126.436Q230.313 126.436 229.829 125.791Q229.507 125.308 228.97 123.213Q227.949 118.218 226.338 115.21ZM272.368 26.748Q278.76 26.9629 282.734 27.3926Q284.185 27.5537 284.185 28.4131L283.594 30.0244Q283.057 31.4209 283.057 34.9121L283.057 35.8789L296.699 35.8789L296.699 35.6641Q296.699 29.7021 296.055 26.748Q302.07 26.9092 306.367 27.3926Q307.817 27.5537 307.817 28.4131Q307.817 29.0039 307.28 29.917Q306.689 31.582 306.689 34.8047L306.689 35.8789L307.119 35.8789L323.071 35.6641Q323.984 35.6641 324.146 35.8789Q324.307 36.0938 324.307 36.8457L324.307 43.7207Q324.307 44.5801 324.092 44.7412Q323.877 44.9023 323.071 44.9023L307.119 44.6875L306.689 44.6875L306.958 49.5215Q306.958 50.3809 306.689 50.5957Q306.528 50.7568 305.723 50.7568L297.666 50.7568Q296.807 50.7568 296.646 50.4883Q296.484 50.3271 296.484 49.5215Q296.484 49.3066 296.538 47.8564Q296.646 46.2451 296.699 44.6875L283.057 44.6875L283.325 49.5215Q283.325 50.3271 283.057 50.4883Q282.842 50.6494 282.09 50.6494L274.033 50.6494Q272.852 50.6494 272.852 49.5215Q272.852 49.3066 272.905 47.8027Q273.013 46.1914 273.066 44.6875L272.798 44.6875L257.974 44.9023Q257.114 44.9023 256.899 44.6875Q256.738 44.4727 256.738 43.7207L256.738 36.8457Q256.738 35.9863 257.007 35.8252Q257.168 35.6641 257.974 35.6641L272.798 35.8789L273.066 35.8789L273.066 35.6641Q273.066 29.8096 272.368 26.748Z" />
        </g>
        <g transform="translate(330, 0)" fill="#333333" stroke="none" id="上班摸-鱼中">
          <path d="M93.1885 97.4316L17.4023 97.4316L17.4023 58.4912L11.8701 62.4121L6.17676 54.4092Q29.0576 39.585 41.0352 20.4102L49.7363 24.2773Q49.0381 25.7275 46.8359 29.0039L79.2236 29.0039L79.2236 37.9199Q75.4639 42.915 70.5225 48.5547L93.1885 48.5547L93.1885 97.4316ZM66.2256 37.9199L39.9072 37.9199Q34.4824 44.0967 29.7021 48.5547L57.2021 48.5547Q62.251 43.667 66.2256 37.9199ZM83.3594 68.1592L83.3594 57.4707L60.2637 57.4707L60.2637 68.1592L83.3594 68.1592ZM50.4883 68.1592L50.4883 57.4707L27.1777 57.4707L27.1777 68.1592L50.4883 68.1592ZM83.3594 88.5156L83.3594 77.1826L60.2637 77.1826L60.2637 88.5156L83.3594 88.5156ZM50.4883 88.5156L50.4883 77.1826L27.1777 77.1826L27.1777 88.5156L50.4883 88.5156ZM103.179 114.78L7.25098 114.78L7.25098 105.649L103.179 105.649L103.179 114.78ZM208.13 85.4541L170.371 85.4541L170.371 117.197L160.273 117.197L160.273 85.4541L122.676 85.4541L122.676 38.9941L160.273 38.9941L160.273 21.3232L170.371 21.3232L170.371 38.9941L208.13 38.9941L208.13 85.4541ZM197.979 75.7324L197.979 48.6621L170.371 48.6621L170.371 75.7324L197.979 75.7324ZM160.273 75.7324L160.273 48.6621L132.881 48.6621L132.881 75.7324L160.273 75.7324Z" />
        </g>
      </g>
    </g>
  </g>
</svg>